<?xml version="1.0" standalone="no"?>
<!DOCTYPE svg PUBLIC "-//W3C//DTD SVG 1.1//EN" "http://www.w3.org/Graphics/SVG/1.1/DTD/svg11.dtd" >
<svg xmlns="http://www.w3.org/2000/svg">
<metadata>Generated by IcoMoon</metadata>
<defs>
<font id="icomoon" horiz-adv-x="1024">
<font-face units-per-em="1024" ascent="960" descent="-64" />
<missing-glyph horiz-adv-x="1024" />
<glyph unicode="&#x20;" horiz-adv-x="512" d="" />
<glyph unicode="&#xe900;" glyph-name="minus" d="M1000.729 471.272h-977.455c-12.847 0-23.273-10.427-23.273-23.273s10.427-23.273 23.273-23.273h977.455c12.847 0 23.273 10.427 23.273 23.273s-10.427 23.273-23.273 23.273z" />
<glyph unicode="&#xe901;" glyph-name="right-arrow" d="M1017.76 463.077l-383.996 383.996c-8.32 8.32-21.846 8.32-30.166 0s-8.32-21.846 0-30.166l368.892-368.892-368.934-368.934c-8.32-8.32-8.32-21.846 0-30.166 4.182-4.138 9.642-6.23 15.104-6.23s10.922 2.090 15.104 6.23l383.996 383.996c8.32 8.32 8.32 21.846 0 30.166zM1002.656 469.349h-981.322c-11.776 0-21.334-9.558-21.334-21.334s9.558-21.334 21.334-21.334h981.324c11.776 0 21.334 9.558 21.334 21.334s-9.56 21.334-21.336 21.334z" />
<glyph unicode="&#xe902;" glyph-name="avatar" d="M842.368 190.080l-163.456 40.874-13.91 55.638c43.734 43.306 73.686 102.742 82.56 163.798 24.234 6.784 43.008 27.606 46.25 53.674l10.666 85.334c2.262 18.006-3.286 36.182-15.232 49.878-6.998 8.022-15.83 14.080-25.6 17.792l3.926 80.342 15.958 16c24.022 25.558 43.946 69.376 2.304 132.95-32 48.85-86.356 73.64-161.62 73.64-29.654 0-98.048 0-161.706-42.752-181.762-3.798-206.508-88.234-206.508-170.582 0-19.158 4.65-62.294 7.722-88.32-10.966-3.456-20.95-9.856-28.714-18.646-12.118-13.782-17.792-32.086-15.53-50.262l10.666-85.334c3.498-27.862 24.662-49.706 51.328-54.912 8.832-58.666 37.248-116.224 78.464-158.806l-14.848-59.434-163.456-40.872c-106.966-26.752-181.632-122.41-181.632-232.746 0-11.776 9.558-21.334 21.334-21.334h981.334c11.776 0 21.334 9.642 21.334 21.418-0.002 110.252-74.668 205.91-181.634 232.662zM43.776-21.334c8.746 81.45 67.242 149.76 148.224 170.026l175.83 43.946c7.638 1.92 13.61 7.894 15.574 15.53l20.906 83.67c1.92 7.51-0.47 15.446-6.102 20.736-43.094 40.406-71.594 99.67-76.288 158.464-0.896 11.094-10.154 19.626-21.29 19.626h-6.954c-10.752 0-19.84 8.022-21.162 18.688l-10.666 85.334c-0.768 6.186 1.066 12.118 5.162 16.768s9.77 7.21 16 7.21h4.394c6.144 0 11.99 2.646 16 7.21 4.054 4.608 5.93 10.71 5.162 16.768-2.73 21.888-9.898 83.158-9.898 104.022 0 66.56 13.056 126.422 170.88 128 4.352 0.042 8.662 1.45 12.202 3.968 47.616 34.090 98.73 38.698 142.464 38.698 59.99 0 102.314-18.304 125.91-54.358 28.33-43.306 16.128-65.706 2.774-79.914l-21.334-21.334c-3.754-3.754-5.974-8.746-6.23-14.038l-5.162-106.794c-0.256-5.802 1.834-11.434 5.802-15.658s9.472-6.656 15.274-6.698c6.186-0.042 11.818-2.646 15.872-7.296 4.054-4.608 5.846-10.454 5.078-16.554l-10.666-85.334c-1.322-10.666-10.454-18.688-23.254-18.688-11.136 0-20.394-8.534-21.29-19.626-4.822-60.672-34.688-121.088-79.958-161.664-5.888-5.248-8.362-13.354-6.442-21.034l20.054-80.17c1.92-7.638 7.894-13.61 15.488-15.53l175.87-43.946c80.938-20.266 139.434-88.534 148.182-170.026h-936.406z" />
<glyph unicode="&#xe903;" glyph-name="facebook" d="M290.645 365.355h107.435v-397.312c0-17.664 14.293-32 32-32l170.965-0.043c17.707 0 32 14.379 32 32v397.312h101.845c16.128 0 29.739 12.032 31.744 28.032l21.248 170.667c2.389 19.029-12.501 35.968-31.744 35.968h-123.093c4.821 105.429-18.56 136.619 50.005 136.619 46.421 5.547 119.637-17.963 119.637 32v152.619c0 16-11.819 29.525-27.648 31.701-13.397 1.835-66.347 7.083-132.011 7.083-299.093 0-237.525-331.605-244.907-359.979h-107.477c-17.664 0-32-14.336-32-32v-170.667c0-17.664 14.336-32 32-32zM322.645 535.979h107.435c17.664 0 32 14.336 32 32v134.443c0 123.008 65.92 193.536 180.907 193.536 37.461 0 71.936-1.835 95.659-3.712v-91.691c-17.152-8.747-169.643 37.717-169.643-115.072v-117.547c0-17.664 14.336-32 32-32h118.869l-13.312-106.667h-105.557c-17.664 0-32-14.336-32-32v-397.269h-106.88v397.312c0 17.664-14.336 32-32 32h-107.477z" />
<glyph unicode="&#xe904;" glyph-name="oven" d="M1010.392 889.317h-125.327v25.768c0 24.768-20.145 44.916-44.916 44.916h-31.348c-7.078 0-12.8-5.723-12.8-12.8s5.723-12.8 12.8-12.8h31.348c10.65 0 19.315-8.665 19.315-19.315v-25.78h-95.731v44.776c0 7.078-5.723 12.8-12.8 12.8s-12.8-5.723-12.8-12.8v-44.776h-95.731v25.78c0 10.65 8.665 19.315 19.315 19.315h31.36c7.078 0 12.8 5.723 12.8 12.8s-5.723 12.8-12.803 12.8h-31.36c-24.768 0-44.916-20.148-44.916-44.916v-25.78h-218.293v25.78c0 24.768-20.148 44.916-44.916 44.916h-31.348c-7.078 0-12.8-5.723-12.8-12.8s5.723-12.8 12.8-12.8h31.348c10.65 0 19.315-8.665 19.315-19.315v-25.78h-95.731v44.776c0 7.078-5.723 12.8-12.8 12.8s-12.8-5.723-12.8-12.8v-44.776h-95.734v25.78c0 10.65 8.665 19.315 19.315 19.315h31.36c7.078 0 12.8 5.723 12.8 12.8s-5.723 12.8-12.8 12.8h-31.36c-24.768 0-44.916-20.148-44.916-44.916v-25.78h-116.634c-7.078 0-12.8-5.723-12.8-12.8v-113.076c0-7.078 5.723-12.8 12.8-12.8h15.54v-801.827c0-7.078 5.723-12.8 12.8-12.8h940.106c7.078 0 12.8 5.723 12.8 12.8v801.84h15.54c7.078 0 12.8 5.723 12.8 12.8v113.076c-0.003 7.068-5.723 12.8-12.803 12.8zM969.254-38.4h-914.509v611.207h914.506v-611.207zM54.746 598.408v152.232h914.506v-152.232h-914.506zM997.592 776.24h-971.184v87.476h971.187v-87.476zM310.034 717.782c-23.963 0-43.431-19.468-43.431-43.418 0.013-23.963 19.483-43.431 43.431-43.431s43.431 19.47 43.431 43.431c0 23.938-19.47 43.418-43.431 43.418zM310.034 656.521c-9.83 0-17.83 8-17.83 17.83s8.013 17.818 17.83 17.818c9.83 0 17.83-7.988 17.83-17.818s-8-17.83-17.83-17.83zM444.678 717.782c-23.963 0-43.431-19.468-43.431-43.418 0-23.963 19.483-43.431 43.431-43.431s43.431 19.47 43.431 43.431c0 23.938-19.47 43.418-43.431 43.418zM444.678 656.521c-9.83 0-17.83 8-17.83 17.83s8 17.818 17.83 17.818c9.83 0 17.83-7.988 17.83-17.818s-8-17.83-17.83-17.83zM579.31 717.782c-23.935 0-43.418-19.468-43.418-43.418 0.013-23.963 19.483-43.431 43.418-43.431 23.95 0 43.431 19.47 43.431 43.431 0 23.938-19.468 43.418-43.431 43.418zM579.31 656.521c-9.83 0-17.818 8-17.818 17.83s8 17.818 17.818 17.818c9.83 0 17.83-7.988 17.83-17.818s-8-17.83-17.83-17.83zM713.954 717.782c-23.935 0-43.418-19.468-43.418-43.418 0-23.963 19.483-43.431 43.418-43.431 23.95 0 43.431 19.47 43.431 43.431 0 23.938-19.468 43.418-43.431 43.418zM713.954 656.521c-9.83 0-17.818 8-17.818 17.83s7.988 17.818 17.818 17.818 17.83-7.988 17.83-17.818-8-17.83-17.83-17.83zM862.641 484.539c-7.078 0-12.8-5.723-12.8-12.8v-11.775c0-10.483-6.835-19.328-16.243-22.568v58.611c0 7.078-5.723 12.8-12.8 12.8h-617.608c-7.078 0-12.8-5.723-12.8-12.8v-59.443c-10.803 2.318-18.93 11.93-18.93 23.398v2.958c0 7.078-5.723 12.8-12.8 12.8s-12.8-5.723-12.8-12.8v-2.958c0-25.613 19.598-46.491 44.533-49.038v-335.722c0-7.078 5.723-12.8 12.8-12.8h617.608c7.078 0 12.8 5.723 12.8 12.8v335.992c23.655 3.738 41.843 24.090 41.843 48.768v11.775c-0.003 7.080-5.723 12.803-12.803 12.803zM807.997 88.002h-592.007v322.411h592.007v-322.411zM807.997 436.014h-592.007v47.193h592.007v-47.193z" />
<glyph unicode="&#xe905;" glyph-name="house" d="M810.667-64h-597.333c-47.061 0-85.333 38.272-85.333 85.333v384h-85.333c-23.936 0-42.667 18.731-42.667 42.667 0 11.307 4.608 22.4 12.629 30.421l484.437 475.477c8.277 8.107 21.589 8.107 29.867 0l484.267-475.307c8.192-8.192 12.8-19.285 12.8-30.592 0-23.936-18.731-42.667-42.667-42.667h-85.333v-384c0-47.061-38.272-85.333-85.333-85.333zM512 908.757l-469.333-460.629 106.667-0.128c11.776 0 21.333-9.557 21.333-21.333v-405.333c0-23.509 19.157-42.667 42.667-42.667h597.333c23.509 0 42.667 19.157 42.667 42.667v405.333c0 11.776 9.557 21.333 21.333 21.333h106.667c0 0.085-0.085 0.213-0.128 0.256z" />
<glyph unicode="&#xe906;" glyph-name="basket" d="M826.496-64h-628.992c-37.717 0-69.632 26.453-75.904 62.891l-120.576 702.549c-3.669 21.632 2.389 43.648 16.597 60.501 14.677 17.408 36.352 27.392 59.392 27.392h870.016c23.040 0 44.715-9.984 59.392-27.392 14.208-16.853 20.267-38.912 16.597-60.459l-120.619-702.592c-6.272-36.437-38.187-62.891-75.904-62.891zM77.013 746.667c-10.453 0-20.224-4.437-26.752-12.203-6.229-7.339-8.704-16.512-7.125-25.813l120.533-702.549c2.688-15.872 16.939-27.435 33.835-27.435h628.992c16.896 0 31.104 11.563 33.835 27.477l120.533 702.549c1.579 9.301-0.896 18.475-7.125 25.771-6.528 7.765-16.299 12.203-26.752 12.203zM277.333 618.667c-2.816 0-5.675 0.555-8.405 1.749-10.837 4.608-15.829 17.152-11.221 27.989l128 298.667c4.693 10.923 17.237 15.872 28.032 11.221 10.837-4.651 15.829-17.195 11.221-27.989l-128-298.667c-3.499-8.149-11.392-12.971-19.627-12.971zM746.667 618.667c-8.235 0-16.128 4.821-19.627 12.928l-128 298.667c-4.608 10.795 0.384 23.339 11.221 27.989 10.752 4.608 23.339-0.341 28.032-11.221l128-298.667c4.608-10.795-0.384-23.339-11.221-27.989-2.731-1.152-5.589-1.707-8.405-1.707zM277.333 106.667c-11.776 0-21.333 9.557-21.333 21.333v213.333c0 11.776 9.557 21.333 21.333 21.333s21.333-9.557 21.333-21.333v-213.333c0-11.776-9.557-21.333-21.333-21.333zM512 106.667c-11.776 0-21.333 9.557-21.333 21.333v213.333c0 11.776 9.557 21.333 21.333 21.333s21.333-9.557 21.333-21.333v-213.333c0-11.776-9.557-21.333-21.333-21.333zM746.667 106.667c-11.776 0-21.333 9.557-21.333 21.333v213.333c0 11.776 9.557 21.333 21.333 21.333s21.333-9.557 21.333-21.333v-213.333c0-11.776-9.557-21.333-21.333-21.333z" />
<glyph unicode="&#xe907;" glyph-name="settings" d="M576.869-63.997h-129.741l-47.42 138.759-76.219 24.145-141.085-52.364-71.855 71.855 52.653 141.094-24.145 76.219-139.057 47.42v129.741l138.767 47.42 24.145 76.219-52.364 141.085 71.855 71.855 141.085-52.653 76.219 24.145 47.42 139.057h129.741l47.42-138.767 76.219-24.145 141.094 52.364 71.855-71.855-52.653-141.085 24.145-76.219 139.048-47.42v-129.741l-138.759-47.42-24.145-76.219 52.364-141.094-71.855-71.855-141.094 52.653-76.219-24.145zM480.58-17.455h63.128l44.216 129.452 113.753 36.366 127.994-48 29.676 29.676-48 127.994 36.366 113.744 129.741 44.804v62.838l-129.452 44.216-36.366 114.034 48 128.003-29.966 29.966-127.994-48-113.753 36.358-44.506 129.46h-62.838l-44.506-129.46-113.744-36.358-128.003 48-29.966-29.966 48-128.003-36.358-113.744-129.46-44.506v-63.128l129.46-44.216 36.358-113.753-48-127.994 29.676-29.676 128.003 48 113.744-36.366zM512.003 447.997c-64.27 0-116.369 52.099-116.369 116.369 0 64.261 52.099 116.361 116.369 116.361 64.261 0 116.361-52.099 116.361-116.361 0-64.27-52.099-116.369-116.361-116.369zM512.003 634.185c-38.565 0-69.818-31.261-69.818-69.818 0-38.565 31.253-69.818 69.818-69.818 38.557 0 69.818 31.253 69.818 69.818 0 38.557-31.261 69.818-69.818 69.818zM698.182 215.276h-46.543v81.452c0 32.131-26.054 58.185-58.185 58.185h-162.912c-32.131 0-58.176-26.054-58.176-58.185v-81.452h-46.551v81.452c0 57.835 46.892 104.727 104.727 104.727h162.912c57.835 0 104.727-46.892 104.727-104.727z" />
<glyph unicode="&#xe908;" glyph-name="trailer" d="M320 64h-85.333c-11.776 0-21.333 9.557-21.333 21.333s9.557 21.333 21.333 21.333h85.333c11.776 0 21.333-9.557 21.333-21.333s-9.557-21.333-21.333-21.333zM64 64h-42.667c-11.776 0-21.333 9.557-21.333 21.333s9.557 21.333 21.333 21.333h42.667c11.776 0 21.333-9.557 21.333-21.333s-9.557-21.333-21.333-21.333zM576 64h-85.333c-11.776 0-21.333 9.557-21.333 21.333s9.557 21.333 21.333 21.333h64v661.333c0 11.776-9.557 21.333-21.333 21.333h-512c-11.776 0-21.333 9.557-21.333 21.333s9.557 21.333 21.333 21.333h512c35.285 0 64-28.715 64-64v-682.667c0-11.776-9.557-21.333-21.333-21.333zM960 64h-85.333c-11.776 0-21.333 9.557-21.333 21.333s9.557 21.333 21.333 21.333h85.333c11.776 0 21.333 9.557 21.333 21.333v341.333c0 82.347-66.987 149.333-149.333 149.333h-234.667v-512h106.667c11.776 0 21.333-9.557 21.333-21.333s-9.557-21.333-21.333-21.333h-128c-11.776 0-21.333 9.557-21.333 21.333v554.667c0 11.776 9.557 21.333 21.333 21.333h256c105.856 0 192-86.144 192-192v-341.333c0-35.285-28.715-64-64-64zM1002.667 362.667h-213.333c-58.795 0-106.667 47.872-106.667 106.667v170.667c0 11.776 9.557 21.333 21.333 21.333s21.333-9.557 21.333-21.333v-170.667c0-35.285 28.715-64 64-64h213.333c11.776 0 21.333-9.557 21.333-21.333s-9.557-21.333-21.333-21.333zM362.667 277.333c-11.776 0-21.333 9.557-21.333 21.333v384c0 11.776 9.557 21.333 21.333 21.333s21.333-9.557 21.333-21.333v-384c0-11.776-9.557-21.333-21.333-21.333zM149.333 277.333c-11.776 0-21.333 9.557-21.333 21.333v384c0 11.776 9.557 21.333 21.333 21.333s21.333-9.557 21.333-21.333v-384c0-11.776-9.557-21.333-21.333-21.333zM789.333-21.333c-58.795 0-106.667 47.872-106.667 106.667s47.872 106.667 106.667 106.667 106.667-47.872 106.667-106.667-47.872-106.667-106.667-106.667zM789.333 149.333c-35.285 0-64-28.715-64-64s28.715-64 64-64 64 28.715 64 64-28.715 64-64 64zM405.333-21.333c-58.795 0-106.667 47.872-106.667 106.667s47.872 106.667 106.667 106.667 106.667-47.872 106.667-106.667-47.872-106.667-106.667-106.667zM405.333 149.333c-35.285 0-64-28.715-64-64s28.715-64 64-64 64 28.715 64 64-28.715 64-64 64zM149.333-21.333c-58.795 0-106.667 47.872-106.667 106.667s47.872 106.667 106.667 106.667 106.667-47.872 106.667-106.667-47.872-106.667-106.667-106.667zM149.333 149.333c-35.285 0-64-28.715-64-64s28.715-64 64-64 64 28.715 64 64-28.715 64-64 64z" />
<glyph unicode="&#xe909;" glyph-name="email" d="M934.912 588.448c-6.656 9.686-19.882 12.16-29.654 5.546l-349.908-239.402c-26.368-18.006-60.416-18.006-86.742 0l-349.91 239.402c-9.77 6.656-23.040 4.182-29.654-5.546s-4.138-22.998 5.59-29.654l349.91-239.402c20.48-14.038 43.99-21.034 67.456-21.034s46.976 6.998 67.456 21.034l349.91 239.402c9.728 6.656 12.202 19.926 5.546 29.654zM975.318 662.176l-393.472 254.934c-41.344 28.288-98.816 27.99-139.264 0.298l-393.9-255.19c-30.506-19.754-48.682-53.204-48.682-89.556v-508.246c0-58.794 47.872-106.666 106.666-106.666h810.666c58.794 0 106.666 47.83 106.666 106.666v508.246c0.002 36.352-18.174 69.802-48.68 89.514zM981.334 64.416c0-35.286-28.714-64-64-64h-810.668c-35.286 0-64 28.714-64 64v508.246c0 21.802 10.922 41.898 29.226 53.718l394.326 255.53c13.568 9.258 29.398 14.166 45.782 14.166s32.214-4.906 46.208-14.464l393.898-255.232c18.304-11.862 29.226-31.914 29.226-53.718v-508.246zM379.050 291.446c-7.552 9.046-20.992 10.282-30.080 2.73l-256-213.334c-9.046-7.552-10.282-21.034-2.73-30.080 4.224-5.078 10.282-7.68 16.426-7.68 4.822 0 9.686 1.622 13.654 4.95l256 213.334c9.046 7.552 10.282 21.034 2.73 30.080zM931.030 80.842l-256 213.334c-9.13 7.552-22.57 6.314-30.080-2.73-7.552-9.088-6.314-22.528 2.73-30.080l256-213.334c4.010-3.328 8.832-4.95 13.654-4.95 6.102 0 12.16 2.602 16.426 7.68 7.552 9.088 6.314 22.528-2.73 30.080z" />
<glyph unicode="&#xe90a;" glyph-name="left" d="M298.622 448.018l473.994 473.992c8.682 8.682 8.682 22.797 0 31.479s-22.797 8.682-31.479 0l-489.753-489.755c-8.682-8.682-8.682-22.797 0-31.479l489.755-489.755c4.364-4.318 10.062-6.501 15.761-6.501s11.397 2.181 15.717 6.545c8.682 8.682 8.682 22.797 0 31.479l-473.996 473.996z" />
<glyph unicode="&#xe90b;" glyph-name="ruler" d="M254.293-42.667c-5.828 0.025-11.1 2.383-14.935 6.188l-211.839 211.839c-3.834 3.856-6.204 9.171-6.204 15.040s2.37 11.184 6.205 15.041l727.039 727.039c3.856 3.834 9.171 6.204 15.040 6.204s11.184-2.37 15.041-6.205l211.839-211.839c3.834-3.856 6.204-9.171 6.204-15.040s-2.37-11.184-6.205-15.041l-727.039-727.039c-3.854-3.824-9.163-6.187-15.023-6.187-0.043 0-0.087 0-0.13 0h0.007zM72.747 190.293l181.547-181.547 696.96 696.96-181.547 181.547zM256 200.32c-5.934 0.025-11.292 2.47-15.143 6.397l-0.003 0.003-91.52 90.453c-3.188 3.706-5.13 8.565-5.13 13.876 0 11.782 9.551 21.333 21.333 21.333 5.312 0 10.17-1.941 13.904-5.153l-0.028 0.024 90.667-90.453c3.834-3.856 6.204-9.171 6.204-15.040s-2.37-11.184-6.205-15.041l0.001 0.001c-3.607-3.694-8.537-6.082-14.023-6.397l-0.057-0.003zM346.027 351.147c-5.934 0.025-11.292 2.47-15.143 6.397l-0.003 0.003-60.16 60.373c-4.577 3.936-7.457 9.733-7.457 16.204 0 11.782 9.551 21.333 21.333 21.333 6.47 0 12.268-2.88 16.18-7.429l0.024-0.028 60.373-60.373c3.898-3.867 6.311-9.225 6.311-15.147 0-11.782-9.551-21.333-21.333-21.333-0.044 0-0.087 0-0.131 0h0.007zM496.853 441.813c-5.828 0.025-11.1 2.383-14.935 6.188l0.001-0.001-90.667 90.453c-3.876 3.876-6.274 9.232-6.274 15.147 0 11.83 9.59 21.421 21.421 21.421 5.915 0 11.27-2.398 15.147-6.274v0l90.453-90.667c3.834-3.856 6.204-9.171 6.204-15.040s-2.37-11.184-6.205-15.041l0.001 0.001c-3.854-3.824-9.163-6.187-15.023-6.187-0.043 0-0.087 0-0.13 0h0.007zM587.52 592.64c-0.037 0-0.080 0-0.123 0-5.86 0-11.169 2.363-15.025 6.188l-60.372 60.372c-4.577 3.936-7.457 9.733-7.457 16.204 0 11.782 9.551 21.333 21.333 21.333 6.47 0 12.268-2.88 16.18-7.429l0.024-0.028 60.373-60.16c3.898-3.867 6.311-9.225 6.311-15.147 0-11.751-9.5-21.282-21.239-21.333h-0.005zM738.347 682.667c-0.037 0-0.080 0-0.123 0-5.86 0-11.169 2.363-15.025 6.188l0.001-0.001-90.453 91.093c-3.986 3.905-6.457 9.344-6.457 15.36 0 11.873 9.625 21.497 21.497 21.497 5.857 0 11.166-2.342 15.044-6.141l90.449-90.449c3.898-3.867 6.311-9.225 6.311-15.147 0-11.751-9.5-21.282-21.239-21.333h-0.005z" />
<glyph unicode="&#xe90c;" glyph-name="pot" d="M917.333-21.333h-640c-58.795 0-106.667 47.872-106.667 106.667v106.667c0 235.264 191.403 426.667 426.667 426.667s426.667-191.403 426.667-426.667v-106.667c0-58.795-47.872-106.667-106.667-106.667zM597.333 576c-211.712 0-384-172.288-384-384v-106.667c0-35.285 28.715-64 64-64h640c35.285 0 64 28.715 64 64v106.667c0 211.712-172.288 384-384 384zM917.333 426.667c-11.776 0-21.333 9.557-21.333 21.333v128c0 164.693-133.973 298.667-298.667 298.667s-298.667-133.973-298.667-298.667v-128c0-11.776-9.557-21.333-21.333-21.333s-21.333 9.557-21.333 21.333v128c0 188.203 153.131 341.333 341.333 341.333s341.333-153.131 341.333-341.333v-128c0-11.776-9.557-21.333-21.333-21.333zM192 234.667c-5.461 0-10.923 2.091-15.104 6.229l-170.667 170.667c-8.32 8.32-8.32 21.845 0 30.165 55.381 55.381 145.451 55.381 200.832 0l42.667-42.667c8.32-8.32 8.32-21.845 0-30.165s-21.845-8.32-30.165 0l-42.667 42.667c-33.579 33.579-85.376 38.059-123.776 13.44l153.941-153.941c8.32-8.32 8.32-21.845 0-30.165-4.139-4.139-9.6-6.229-15.061-6.229zM681.088 362.667h-167.552c-48.256 0-90.667 32.555-103.083 79.189l-25.728 96.64c-3.029 11.392 3.712 23.083 15.104 26.112 11.435 3.072 23.083-3.712 26.112-15.104l25.771-96.64c7.467-27.989 32.896-47.531 61.867-47.531h167.552c28.971 0 54.4 19.541 61.867 47.531l25.771 96.64c3.029 11.392 14.805 18.133 26.112 15.104 11.392-3.029 18.133-14.72 15.104-26.112l-25.771-96.64c-12.459-46.635-54.869-79.189-103.125-79.189zM597.333 576c-11.776 0-21.333 9.557-21.333 21.333v85.333c0 11.776 9.557 21.333 21.333 21.333s21.333-9.557 21.333-21.333v-85.333c0-11.776-9.557-21.333-21.333-21.333zM661.333 661.333h-128c-11.776 0-21.333 9.557-21.333 21.333s9.557 21.333 21.333 21.333h128c11.776 0 21.333-9.557 21.333-21.333s-9.557-21.333-21.333-21.333z" />
<glyph unicode="&#xe90d;" glyph-name="faq" d="M512-64c-282.325 0-512 229.675-512 512s229.675 512 512 512 512-229.675 512-512-229.675-512-512-512zM512 917.333c-258.773 0-469.333-210.56-469.333-469.333s210.56-469.333 469.333-469.333 469.333 210.56 469.333 469.333-210.56 469.333-469.333 469.333zM512 149.333c-35.285 0-64 28.715-64 64s28.715 64 64 64 64-28.715 64-64-28.715-64-64-64zM512 234.667c-11.733 0-21.333-9.557-21.333-21.333s9.6-21.333 21.333-21.333 21.333 9.557 21.333 21.333-9.6 21.333-21.333 21.333zM512 341.333c-11.776 0-21.333 9.557-21.333 21.333v52.48c0 37.419 23.979 70.144 59.733 81.408 53.589 16.811 89.6 65.877 89.6 122.112 0 70.571-57.429 128-128 128s-128-57.429-128-128c0-11.776-9.557-21.333-21.333-21.333s-21.333 9.557-21.333 21.333c0 94.123 76.544 170.667 170.667 170.667s170.667-76.544 170.667-170.667c0-74.965-48-140.416-119.467-162.816-17.877-5.632-29.867-21.973-29.867-40.704v-52.48c0-11.776-9.557-21.333-21.333-21.333z" />
<glyph unicode="&#xe90e;" glyph-name="refresh" d="M960.853 596.48h-213.333v44.373h168.96v170.667h44.373zM107.52 448h-44.373c0 247.467 201.387 448.853 448.853 448.853 122.88 0 235.52-47.787 320.853-136.533l121.173-126.293-30.72-29.013-121.173 126.293c-76.8 78.507-180.907 122.88-290.133 122.88-223.573-1.707-404.48-182.613-404.48-406.187zM107.52 86.187h-44.373v213.333h215.040v-44.373h-170.667zM512-0.853c-122.88 0-235.52 47.787-320.853 136.533l-121.173 126.293 30.72 29.013 121.173-126.293c76.8-78.507 180.907-122.88 290.133-122.88 223.573 0 404.48 180.907 404.48 404.48h42.667c1.707-245.76-199.68-447.147-447.147-447.147z" />
<glyph unicode="&#xe90f;" glyph-name="location-pin" d="M512-64c-5.035 0-10.069 1.792-14.123 5.333-15.104 13.355-369.877 329.856-369.877 634.667 0 211.755 172.288 384 384 384s384-172.245 384-384c0-304.811-354.773-621.312-369.877-634.667-4.053-3.541-9.088-5.333-14.123-5.333zM512 917.333c-188.203 0-341.333-153.131-341.333-341.333 0-252.501 275.243-527.275 341.333-589.611 66.091 62.336 341.333 337.109 341.333 589.611 0 188.203-153.131 341.333-341.333 341.333zM512 362.667c-117.632 0-213.333 95.701-213.333 213.333s95.701 213.333 213.333 213.333 213.333-95.701 213.333-213.333-95.701-213.333-213.333-213.333zM512 746.667c-94.123 0-170.667-76.544-170.667-170.667s76.544-170.667 170.667-170.667 170.667 76.544 170.667 170.667-76.544 170.667-170.667 170.667z" />
<glyph unicode="&#xe910;" glyph-name="present" d="M917.333-64h-810.667c-58.795 0-106.667 47.829-106.667 106.667v170.667c0 11.776 9.557 21.333 21.333 21.333h981.333c11.776 0 21.333-9.557 21.333-21.333v-170.667c0-58.837-47.872-106.667-106.667-106.667zM42.667 192v-149.333c0-35.285 28.715-64 64-64h810.667c35.285 0 64 28.715 64 64v149.376zM1002.667 704h-981.333c-11.776 0-21.333 9.557-21.333 21.333v128c0 58.837 47.872 106.667 106.667 106.667h810.667c58.795 0 106.667-47.829 106.667-106.667v-128c0-11.776-9.557-21.333-21.333-21.333zM42.667 746.667h938.667v106.667c0 35.285-28.715 64-64 64h-810.667c-35.285 0-64-28.715-64-64zM21.333 192.043c-2.645 0-5.333 0.512-7.936 1.536-10.923 4.395-16.256 16.811-11.904 27.691l85.333 213.291c4.395 10.923 16.853 16.299 27.733 11.861 10.923-4.395 16.256-16.811 11.904-27.691l-85.333-213.291c-3.328-8.32-11.349-13.397-19.797-13.397zM1002.667 192.043c-8.448 0-16.469 5.077-19.797 13.397l-85.333 213.291c-4.395 10.923 0.939 23.339 11.904 27.691 10.88 4.437 23.339-0.939 27.733-11.861l85.333-213.291c4.395-10.923-0.939-23.339-11.904-27.691-2.603-1.024-5.291-1.536-7.936-1.536zM106.667 405.333c-9.259 0-17.792 6.101-20.48 15.445l-85.333 298.667c-3.285 11.349 3.285 23.168 14.635 26.368 11.221 3.413 23.083-3.243 26.368-14.592l85.333-298.667c3.243-11.349-3.328-23.168-14.677-26.368-1.963-0.597-3.925-0.853-5.845-0.853zM917.333 405.333c-1.963 0-3.925 0.256-5.888 0.853-11.349 3.2-17.877 15.061-14.677 26.368l85.333 298.667c3.243 11.392 15.147 18.005 26.368 14.635 11.349-3.2 17.877-15.061 14.677-26.368l-85.333-298.667c-2.645-9.387-11.179-15.488-20.48-15.488zM277.333 405.333h-170.667c-11.776 0-21.333 9.557-21.333 21.333s9.557 21.333 21.333 21.333h170.667c11.776 0 21.333-9.557 21.333-21.333s-9.557-21.333-21.333-21.333zM917.333 405.333h-170.667c-11.776 0-21.333 9.557-21.333 21.333s9.557 21.333 21.333 21.333h170.667c11.776 0 21.333-9.557 21.333-21.333s-9.557-21.333-21.333-21.333zM616.107 320c-5.632 0-11.264 2.219-15.445 6.613-8.107 8.491-7.808 22.016 0.725 30.123 24.917 23.808 38.613 56.192 38.613 91.264 0 70.571-57.429 128-128 128s-128-57.429-128-128c0-35.072 13.696-67.456 38.613-91.264 8.533-8.107 8.832-21.632 0.725-30.123-8.107-8.576-21.632-8.917-30.165-0.725-33.408 31.915-51.84 75.264-51.84 122.112 0 94.123 76.544 170.667 170.667 170.667s170.667-76.544 170.667-170.667c0-46.848-18.432-90.197-51.84-122.069-4.139-3.968-9.429-5.931-14.72-5.931zM682.667 320h-341.333c-11.776 0-21.333 9.557-21.333 21.333s9.557 21.333 21.333 21.333h341.333c11.776 0 21.333-9.557 21.333-21.333s-9.557-21.333-21.333-21.333z" />
<glyph unicode="&#xe911;" glyph-name="shopping-cart" d="M810.666 149.33c-58.793 0-106.665-47.872-106.665-106.665s47.872-106.665 106.665-106.665 106.665 47.872 106.665 106.665-47.872 106.665-106.665 106.665zM810.666-21.334c-35.286 0-63.999 28.714-63.999 63.999s28.714 63.999 63.999 63.999c35.286 0 63.999-28.714 63.999-63.999s-28.716-63.999-63.999-63.999zM384.002 149.33c-58.793 0-106.665-47.872-106.665-106.665s47.872-106.665 106.665-106.665 106.665 47.872 106.665 106.665-47.872 106.665-106.665 106.665zM384.002-21.334c-35.286 0-63.999 28.714-63.999 63.999s28.714 63.999 63.999 63.999 63.999-28.714 63.999-63.999-28.714-63.999-63.999-63.999zM895.997 234.663h-492.411c-50.688 0-94.633 36.054-104.575 85.759l-107.433 537.083c-2.006 9.984-10.752 17.152-20.906 17.152h-127.999c-11.776 0-21.334-9.558-21.334-21.334s9.558-21.334 21.334-21.334h110.505l103.977-519.973c13.91-69.545 75.477-120.021 146.431-120.021h492.411c11.776 0 21.334 9.558 21.334 21.334s-9.558 21.334-21.334 21.334zM997.33 739.448c-4.054 4.566-9.856 7.21-16 7.21h-767.993c-11.776 0-21.334-9.558-21.334-21.334s9.558-21.334 21.334-21.334h743.843l-30.336-242.6c-4.010-31.958-31.318-56.063-63.529-56.063h-585.978c-11.776 0-21.334-9.558-21.334-21.334s9.558-21.334 21.334-21.334h585.978c53.673 0 99.199 40.15 105.855 93.439l33.322 266.579c0.768 6.060-1.108 12.204-5.162 16.77zM612.394 740.428l-213.33 213.332c-8.32 8.32-21.846 8.32-30.166 0l-127.999-127.999c-8.32-8.32-8.32-21.846 0-30.166l85.333-85.333c8.32-8.32 21.846-8.32 30.166 0s8.32 21.846 0 30.166l-70.229 70.229 97.833 97.833 198.228-198.27c4.182-4.138 9.642-6.23 15.104-6.23s10.922 2.090 15.062 6.272c8.318 8.322 8.318 21.846-0.002 30.166zM725.333 959.99h-170.664c-11.776 0-21.334-9.558-21.334-21.334v-170.664c0-11.776 9.558-21.334 21.334-21.334s21.334 9.558 21.334 21.334v149.331h127.999v-191.998c0-11.776 9.558-21.334 21.334-21.334s21.334 9.558 21.334 21.334v213.332c-0.002 11.776-9.56 21.334-21.336 21.334zM927.827 927.862c-42.752 42.752-112.297 42.752-155.048 0l-62.505-62.505c-8.32-8.32-8.32-21.846 0-30.166s21.846-8.32 30.166 0l62.505 62.505c26.112 26.070 68.607 26.070 94.761-0.086 12.672-12.672 19.626-29.44 19.626-47.36s-6.954-34.73-19.626-47.36l-62.505-62.505c-8.32-8.32-8.32-21.846 0-30.166 4.182-4.138 9.642-6.23 15.104-6.23s10.922 2.090 15.062 6.272l62.505 62.505c20.694 20.694 32.128 48.256 32.128 77.525-0.002 29.27-11.436 56.789-32.172 77.569z" />
<glyph unicode="&#xe912;" glyph-name="handsfree" d="M185.515-64.256c-47.573 0-94.933 18.389-131.157 54.613-68.011 68.011-73.088 175.232-11.819 249.387l328.661 397.867c41.984 50.859 103.893 81.835 169.771 84.949 66.048 3.456 130.475-21.803 177.109-68.48s71.637-111.189 68.48-177.109c-3.115-65.877-34.091-127.787-84.949-169.771l-397.867-328.661c-34.645-28.672-76.501-42.795-118.229-42.795zM552.064 680.149c-3.029 0-6.059-0.043-9.088-0.213-53.931-2.603-104.533-27.904-138.88-69.504l-328.704-397.867c-47.147-57.131-43.264-139.691 9.131-192.043s134.955-56.32 192.043-9.131l397.867 328.661c41.6 34.389 66.944 84.992 69.504 138.923s-17.877 106.752-56.021 144.939c-36.053 36.011-85.12 56.235-135.851 56.235zM554.667 384c-58.795 0-106.667 47.872-106.667 106.667s47.872 106.667 106.667 106.667 106.667-47.872 106.667-106.667-47.872-106.667-106.667-106.667zM554.667 554.667c-35.285 0-64-28.715-64-64s28.715-64 64-64 64 28.715 64 64-28.715 64-64 64zM618.667 149.333c-35.541 0-70.443 4.523-103.68 13.525-11.392 3.072-18.091 14.805-15.061 26.155 3.072 11.435 14.805 18.091 26.155 15.061 61.312-16.555 129.792-16.085 192.853 2.133 0.939 0.469 1.963 0.896 2.944 1.152 152.789 44.757 259.456 187.563 259.456 347.307 0 199.979-162.688 362.667-362.667 362.667-76.331 0-149.333-23.552-211.115-68.096-9.515-6.869-22.869-4.736-29.781 4.864-6.869 9.557-4.736 22.869 4.821 29.781 69.077 49.792 150.741 76.117 236.075 76.117 223.488 0 405.333-181.845 405.333-405.333 0-177.664-118.101-336.597-287.531-387.499-0.981-0.469-1.963-0.896-2.944-1.152-37.291-11.093-75.904-16.683-114.859-16.683zM341.333 746.667c-47.061 0-85.333 38.272-85.333 85.333s38.272 85.333 85.333 85.333 85.333-38.272 85.333-85.333-38.272-85.333-85.333-85.333zM341.333 874.667c-23.509 0-42.667-19.157-42.667-42.667s19.157-42.667 42.667-42.667 42.667 19.157 42.667 42.667-19.157 42.667-42.667 42.667z" />
<glyph unicode="&#xe913;" glyph-name="left-arrow" d="M51.509 448.015l368.892 368.892c8.32 8.32 8.32 21.846 0 30.166s-21.846 8.32-30.166 0l-383.996-383.996c-8.32-8.32-8.32-21.846 0-30.166l383.996-383.996c4.182-4.138 9.642-6.23 15.104-6.23s10.922 2.090 15.062 6.272c8.32 8.32 8.32 21.846 0 30.166l-368.892 368.892zM1002.668 469.349h-981.324c-11.776 0-21.334-9.558-21.334-21.334s9.558-21.334 21.334-21.334h981.324c11.776 0 21.334 9.558 21.334 21.334s-9.558 21.334-21.334 21.334z" />
<glyph unicode="&#xe914;" glyph-name="foam" d="M533.333 192h-426.667c-58.795 0-106.667 47.872-106.667 106.667v213.333c0 35.285 28.715 64 64 64h768c11.776 0 21.333-9.557 21.333-21.333s-9.557-21.333-21.333-21.333h-768c-11.776 0-21.333-9.557-21.333-21.333v-213.333c0-35.285 28.715-64 64-64h426.667c11.776 0 21.333-9.557 21.333-21.333s-9.557-21.333-21.333-21.333zM789.333 533.333c-11.776 0-21.333 9.557-21.333 21.333v42.667c0 35.285-28.715 64-64 64h-512c-35.285 0-64-28.715-64-64v-42.667c0-11.776-9.557-21.333-21.333-21.333s-21.333 9.557-21.333 21.333v42.667c0 58.795 47.872 106.667 106.667 106.667h512c58.795 0 106.667-47.872 106.667-106.667v-42.667c0-11.776-9.557-21.333-21.333-21.333zM192 661.333c-2.219 0-4.48 0.341-6.741 1.109-11.179 3.712-17.237 15.787-13.483 26.965l13.483 40.491c20.352 61.056 77.269 102.101 141.653 102.101h144.896c27.563 0 51.968 17.579 60.715 43.776l8.235 24.832c11.904 35.541 45.013 59.392 82.432 59.392 33.408 0 64.043-18.987 78.123-48.341 38.315-80.171 30.848-161.195-22.229-240.853-6.528-9.771-19.797-12.416-29.568-5.931-9.771 6.528-12.459 19.755-5.931 29.568 44.757 67.157 51.072 132.181 19.243 198.741-6.997 14.677-22.571 24.149-39.637 24.149-19.029 0-35.883-12.16-41.899-30.208l-8.235-24.832c-14.592-43.648-55.253-72.96-101.205-72.96h-144.939c-45.995 0-86.656-29.312-101.163-72.917l-13.525-40.491c-2.987-8.96-11.307-14.592-20.224-14.592zM832-64c-105.856 0-192 86.144-192 192 0 113.493 168.875 304.768 176.043 312.832 8.064 9.131 23.808 9.131 31.872 0 7.211-8.064 176.085-199.339 176.085-312.832 0-105.856-86.144-192-192-192zM832 393.941c-52.864-63.104-149.333-193.323-149.333-265.941 0-82.347 66.987-149.333 149.333-149.333s149.333 66.987 149.333 149.333c0 72.619-96.469 202.837-149.333 265.941z" />
<glyph unicode="&#xe915;" glyph-name="up-arrow" d="M911.082 569.728l-384 384c-8.32 8.32-21.846 8.32-30.166 0l-384-384c-8.32-8.32-8.32-21.846 0-30.166s21.846-8.32 30.166 0l368.896 368.94 368.896-368.938c4.182-4.138 9.642-6.23 15.104-6.23s10.922 2.090 15.104 6.23c8.32 8.318 8.32 21.844 0 30.164zM511.978 960c-11.776 0-21.334-9.558-21.334-21.334v-981.334c0-11.776 9.558-21.334 21.334-21.334s21.334 9.558 21.334 21.334v981.334c0 11.776-9.558 21.334-21.334 21.334z" />
<glyph unicode="&#xe916;" glyph-name="clock" d="M512-64c-282.325 0-512 229.675-512 512s229.675 512 512 512 512-229.675 512-512-229.675-512-512-512zM512 917.333c-258.773 0-469.333-210.56-469.333-469.333s210.56-469.333 469.333-469.333 469.333 210.56 469.333 469.333-210.56 469.333-469.333 469.333zM746.667 192c-5.461 0-10.923 2.091-15.104 6.229l-234.667 234.667c-3.968 4.011-6.229 9.429-6.229 15.104v320c0 11.776 9.557 21.333 21.333 21.333s21.333-9.557 21.333-21.333v-311.168l228.437-228.437c8.32-8.32 8.32-21.845 0-30.165-4.181-4.139-9.643-6.229-15.104-6.229z" />
<glyph unicode="&#xe917;" glyph-name="camera" d="M746.667-64h-469.333c-58.837 0-106.667 47.829-106.667 106.667v810.667c0 58.837 47.829 106.667 106.667 106.667h469.333c58.837 0 106.667-47.829 106.667-106.667v-810.667c0-58.837-47.829-106.667-106.667-106.667zM277.333 917.333c-35.285 0-64-28.715-64-64v-810.667c0-35.285 28.715-64 64-64h469.333c35.285 0 64 28.715 64 64v810.667c0 35.285-28.715 64-64 64zM576 704c-35.285 0-64 28.715-64 64s28.715 64 64 64 64-28.715 64-64-28.715-64-64-64zM576 789.333c-11.733 0-21.333-9.6-21.333-21.333s9.6-21.333 21.333-21.333 21.333 9.6 21.333 21.333-9.6 21.333-21.333 21.333zM405.333 746.667h-85.333c-11.776 0-21.333 9.557-21.333 21.333s9.557 21.333 21.333 21.333h85.333c11.776 0 21.333-9.557 21.333-21.333s-9.557-21.333-21.333-21.333z" />
<glyph unicode="&#xe918;" glyph-name="instagram" d="M202.667-64h618.667c111.744 0 202.667 90.923 202.667 202.667v618.667c0 111.744-90.923 202.667-202.667 202.667h-618.667c-111.744 0-202.667-90.923-202.667-202.667v-618.667c0-111.744 90.923-202.667 202.667-202.667zM64 757.333c0 76.459 62.208 138.667 138.667 138.667h618.667c76.459 0 138.667-62.208 138.667-138.667v-618.667c0-76.459-62.208-138.667-138.667-138.667h-618.667c-76.459 0-138.667 62.208-138.667 138.667zM512 186.453c144.213 0 261.547 117.333 261.547 261.547s-117.333 261.547-261.547 261.547-261.547-117.333-261.547-261.547 117.333-261.547 261.547-261.547zM512 645.547c108.928 0 197.547-88.619 197.547-197.547s-88.619-197.547-197.547-197.547-197.547 88.619-197.547 197.547 88.619 197.547 197.547 197.547zM783.275 645.888c42.069 0 73.771 31.573 73.771 73.429 0 43.648-33.365 73.429-73.728 73.429-42.069 0-73.771-31.573-73.771-73.429 0-43.563 33.195-73.429 73.728-73.429zM790.827 726.357c13.483-11.904-17.28-26.368-17.28-7.083 0 11.52 15.659 8.533 17.28 7.083z" />
<glyph unicode="&#xe919;" glyph-name="starred" d="M815.232-64c-3.541 0-7.125 0.896-10.325 2.645l-292.907 161.92-292.949-161.92c-7.125-3.968-15.957-3.456-22.613 1.237s-10.069 12.8-8.789 20.864l56.192 344.405-237.781 243.797c-5.589 5.717-7.509 14.080-4.949 21.675s9.088 13.099 16.981 14.293l327.808 50.091 146.773 312.747c7.040 15.019 31.573 15.019 38.613 0l146.773-312.747 327.808-50.091c7.893-1.195 14.464-6.741 16.981-14.293s0.64-15.957-4.949-21.675l-237.824-243.755 56.192-344.405c1.323-8.064-2.091-16.171-8.789-20.864-3.584-2.603-7.936-3.925-12.245-3.925zM512 146.304c3.541 0 7.125-0.896 10.325-2.645l264.832-146.389-50.859 311.68c-1.067 6.699 1.067 13.483 5.803 18.347l216.32 221.739-297.984 45.525c-7.040 1.067-13.056 5.589-16.085 12.032l-132.352 281.856-132.309-281.899c-3.029-6.443-9.045-10.965-16.085-11.989l-297.984-45.525 216.32-221.739c4.736-4.864 6.869-11.648 5.803-18.347l-50.859-311.68 264.832 146.389c3.157 1.749 6.741 2.645 10.283 2.645z" />
<glyph unicode="&#xe91a;" glyph-name="block" d="M946.34 688.966c-0.977 0.792-2.049 1.49-3.166 2.14l-82.060 45.755v13.684c0 39.796-50.036 69.818-116.363 69.818-10.193 0-19.828-0.932-29.184-2.28l-87.179 48.639v23.459c0 39.796-50.036 69.818-116.363 69.818s-116.363-30.022-116.363-69.818v-23.459l-87.179-48.639c-9.312 1.348-18.947 2.28-29.186 2.28-66.282 0-116.363-30.022-116.363-69.818v-13.639l-82.012-45.755c-1.117-0.604-2.095-1.303-3.072-2.095-33.746-19.455-54.552-53.527-54.552-89.786v-349.091c0-36.305 20.806-70.331 54.598-89.832 0.977-0.744 2.001-1.442 3.072-2.049l373.761-208.523c1.536-0.838 3.118-1.49 4.841-1.955 16.711-7.865 34.396-11.823 52.457-11.823 18.013 0 35.561 3.91 52.178 11.684 1.769 0.465 3.491 1.163 5.121 2.095l373.761 208.523c1.071 0.559 2.049 1.257 3.026 2.001 33.792 19.455 54.598 53.527 54.598 89.832v349.091c0.039 36.262-20.673 70.287-54.371 89.743zM744.751 773.819c45.057 0 69.818-17.455 69.818-23.273s-24.716-23.273-69.818-23.273c-45.057 0-69.818 17.455-69.818 23.273s24.809 23.273 69.818 23.273zM674.933 693.947c38.354-16.756 101.282-16.756 139.636 0v-36.491c0-5.819-24.716-23.273-69.818-23.273-45.057 0-69.818 17.455-69.818 23.273v36.491zM512.023 913.455c45.057 0 69.818-17.455 69.818-23.273s-24.716-23.273-69.818-23.273c-45.057 0-69.818 17.455-69.818 23.273s24.809 23.273 69.818 23.273zM442.205 833.583c38.354-16.756 101.282-16.756 139.636 0v-36.491c0-5.819-24.716-23.273-69.818-23.273-45.057 0-69.818 17.455-69.818 23.273v36.491zM279.297 773.819c45.057 0 69.818-17.455 69.818-23.273s-24.716-23.273-69.818-23.273c-45.009 0-69.818 17.455-69.818 23.273s24.807 23.273 69.818 23.273zM209.479 693.947c38.354-16.756 101.282-16.756 139.636 0v-36.491c0-5.819-24.716-23.273-69.818-23.273-45.009 0-69.818 17.455-69.818 23.273v36.491zM954.206 250.182c0-20.62-12.521-39.563-33.373-50.688-1.257-0.652-2.42-1.442-3.491-2.28l-367.15-204.847c-1.023-0.325-2.049-0.744-3.026-1.257-22.527-11.311-47.71-11.311-70.191 0-0.977 0.465-1.955 0.884-2.932 1.211l-367.196 204.845c-1.117 0.884-2.328 1.676-3.585 2.328-20.852 11.125-33.419 30.068-33.419 50.688v349.091c0 20.62 12.521 39.563 33.419 50.734 1.303 0.652 2.513 1.442 3.585 2.328l56.088 31.279v-26.158c0-39.796 50.084-69.818 116.363-69.818s116.363 30.022 116.363 69.818v93.090c0 18.386-11.031 34.49-29.044 46.684l29.044 16.244v-16.383c0-39.796 50.084-69.818 116.363-69.818s116.363 30.022 116.363 69.818v16.383l29.044-16.198c-18.013-12.242-29.044-28.346-29.044-46.732v-93.092c0-39.796 50.084-69.818 116.363-69.818s116.363 30.022 116.363 69.818v26.112l55.994-31.233c1.163-0.884 2.374-1.676 3.676-2.374 20.945-11.125 33.419-30.068 33.419-50.688v-349.087zM628.388 517.817v93.092c0 39.796-50.036 69.818-116.363 69.818s-116.363-30.022-116.363-69.818v-93.092c0-39.796 50.036-69.818 116.363-69.818s116.363 30.022 116.363 69.818zM581.841 517.817c0-5.819-24.761-23.273-69.818-23.273s-69.818 17.455-69.818 23.273v36.491c38.354-16.756 101.282-16.756 139.636 0v-36.491zM512.023 587.635c-45.057 0-69.818 17.455-69.818 23.273s24.809 23.273 69.818 23.273c45.057 0 69.818-17.455 69.818-23.273s-24.716-23.273-69.818-23.273zM429.358 422.306l-279.273 139.636c-11.496 5.679-25.46 1.117-31.185-10.427-5.725-11.496-1.071-25.46 10.427-31.233l279.273-139.636c3.305-1.676 6.842-2.468 10.333-2.468 8.518 0 16.711 4.702 20.852 12.892 5.725 11.5 1.071 25.464-10.427 31.235zM512.023 331.636c-12.847 0-23.273-10.427-23.273-23.273v-255.999c0-12.847 10.427-23.273 23.273-23.273s23.273 10.427 23.273 23.273v255.999c0 12.847-10.427 23.273-23.273 23.273zM873.961 561.896l-279.273-139.636c-11.496-5.771-16.198-19.735-10.427-31.233 4.143-8.145 12.334-12.847 20.852-12.847 3.537 0 7.076 0.792 10.379 2.42l279.273 139.636c11.496 5.771 16.198 19.735 10.427 31.233-5.769 11.544-19.687 16.106-31.231 10.427z" />
<glyph unicode="&#xe91b;" glyph-name="cellphone" d="M181.502-38.398c0-14.121 11.484-25.605 25.596-25.605h613.33c14.111 0 25.596 11.484 25.596 25.605v972.803c0 14.111-11.484 25.596-25.596 25.596h-613.33c-14.111 0-25.596-11.484-25.596-25.596zM207.098-38.398v182.676h613.33v-182.676zM820.428 934.404v-764.531h-613.33v764.531zM513.758 112.148c-33.809 0-61.318-27.51-61.318-61.328 0-33.809 27.51-61.318 61.318-61.318 33.818 0 61.328 27.51 61.328 61.318 0 33.818-27.51 61.328-61.328 61.328zM513.758 15.107c-19.697 0-35.723 16.025-35.723 35.713 0 19.707 16.025 35.732 35.723 35.732 19.707 0 35.732-16.025 35.732-35.732 0-19.688-16.025-35.713-35.732-35.713zM411.463 843.984h108.828c7.070 0 12.793 5.732 12.793 12.803s-5.723 12.803-12.793 12.803h-108.828c-7.080 0-12.803-5.732-12.803-12.803s5.723-12.803 12.803-12.803zM590.525 843.984h25.537c7.070 0 12.803 5.732 12.803 12.803s-5.732 12.803-12.803 12.803h-25.537c-7.080 0-12.803-5.732-12.803-12.803s5.723-12.803 12.803-12.803z" />
<glyph unicode="&#xe91c;" glyph-name="enable" d="M512 64c-221.696 0-418.773 130.859-502.059 333.397-13.227 32.128-13.227 69.035 0 101.163 83.285 202.581 280.363 333.44 502.059 333.44s418.773-130.859 502.059-333.397c13.227-32.128 13.227-69.035 0-101.163-83.285-202.581-280.363-333.44-502.059-333.44zM512 789.333c-204.331 0-385.92-120.491-462.592-306.944-8.96-21.845-8.96-46.891 0-68.736 76.672-186.496 258.261-306.987 462.592-306.987s385.92 120.491 462.592 306.944c8.96 21.845 8.96 46.891 0 68.736-76.672 186.496-258.261 306.987-462.592 306.987zM512 277.333c-94.123 0-170.667 76.544-170.667 170.667s76.544 170.667 170.667 170.667 170.667-76.544 170.667-170.667-76.544-170.667-170.667-170.667zM512 576c-70.571 0-128-57.429-128-128s57.429-128 128-128 128 57.429 128 128-57.429 128-128 128z" />
<glyph unicode="&#xe91d;" glyph-name="pump" d="M789.035-64c-150.4 0-272.768 124.501-272.768 277.547 0 150.699 115.84 272.427 263.723 277.12 7.339 0.896 14.933-3.669 18.944-10.283 3.968-6.613 4.096-14.848 0.256-21.547-20.096-35.371-30.72-75.861-30.72-117.163 0-129.536 103.211-234.88 230.101-234.88 1.621 0.043 3.328-0.085 4.736 0.128 7.936 1.237 16.341-2.176 20.992-8.917s5.205-15.488 1.195-22.613c-48.725-86.016-139.349-139.392-236.459-139.392zM745.003 443.989c-106.837-20.651-186.069-115.584-186.069-230.443 0-129.536 103.211-234.88 230.101-234.88 69.632 0 135.339 32.683 178.731 87.168-135.979 15.616-241.963 133.333-241.963 275.797 0 35.243 6.571 69.973 19.2 102.357zM533.333-64h-426.667c-58.795 0-106.667 47.872-106.667 106.667v469.333c0 58.795 47.872 106.667 106.667 106.667h426.667c39.381 0 75.52-21.632 94.293-56.448 5.589-10.325 1.707-23.296-8.661-28.885-10.325-5.632-23.339-1.749-28.885 8.661-11.349 20.949-33.067 34.005-56.747 34.005h-426.667c-35.285 0-64-28.715-64-64v-469.333c0-35.285 28.715-64 64-64h426.667c11.776 0 21.333-9.557 21.333-21.333s-9.557-21.333-21.333-21.333zM490.667 576c-11.776 0-21.333 9.557-21.333 21.333v85.333c0 11.776-9.557 21.333-21.333 21.333h-256c-11.776 0-21.333-9.557-21.333-21.333v-85.333c0-11.776-9.557-21.333-21.333-21.333s-21.333 9.557-21.333 21.333v85.333c0 35.285 28.715 64 64 64h256c35.285 0 64-28.715 64-64v-85.333c0-11.776-9.557-21.333-21.333-21.333zM277.333 704c-11.776 0-21.333 9.557-21.333 21.333v117.333c0 11.776 9.557 21.333 21.333 21.333s21.333-9.557 21.333-21.333v-117.333c0-11.776-9.557-21.333-21.333-21.333zM362.667 704c-11.776 0-21.333 9.557-21.333 21.333v117.333c0 11.776 9.557 21.333 21.333 21.333s21.333-9.557 21.333-21.333v-117.333c0-11.776-9.557-21.333-21.333-21.333zM448 832h-426.667c-8.619 0-16.427 5.205-19.712 13.184-3.328 7.979-1.493 17.109 4.608 23.253 59.093 59.051 137.6 91.563 221.141 91.563h220.629c35.285 0 64-28.715 64-64s-28.715-64-64-64zM81.493 874.667h366.507c11.776 0 21.333 9.557 21.333 21.333s-9.557 21.333-21.333 21.333h-220.629c-52.523 0-102.741-14.891-145.877-42.667z" />
<glyph unicode="&#xe91e;" glyph-name="grapes" d="M928.142 451.725c0 78.146-62.261 141.864-139.764 144.554 2.865 11.347 4.555 23.157 4.555 35.379 0 9.587-0.987 18.942-2.775 28.012 14.435 9.287 28.024 20.162 40.367 32.504 14.92 14.92 29.462 32.487 24.282 49.679-5.087 16.9-24.829 22.337-50.561 27.687 26.437 60.729 31.587 152.939 31.812 157.171 0.195 3.625-1.162 7.162-3.73 9.725-2.562 2.567-6.062 3.862-9.725 3.73-4.232-0.225-96.443-5.375-157.171-31.812-5.35 25.737-10.795 45.474-27.694 50.566-17.22 5.2-34.762-9.375-49.674-24.282l-2.695-2.687c-2.45-2.437-4.392-4.412-6.235-6.362-13.4 20.662-36.617 34.387-63.018 34.387-41.419 0-75.118-33.699-75.118-75.116 0-0.562 0.037-1.12 0.112-1.675l17.572-132.907c-23.494 16.455-52.019 26.192-82.815 26.192-79.841 0-144.801-64.961-144.801-144.809 0-12.225 1.687-24.032 4.555-35.379-77.498-2.687-139.764-66.406-139.764-144.554 0-78.498 62.821-142.462 140.804-144.606-3.702-12.922-5.595-26.297-5.595-39.919 0-78.993 63.603-143.309 142.269-144.681-4.052-13.46-6.147-27.422-6.147-41.709 0-79.848 64.961-144.809 144.809-144.809s144.809 64.961 144.809 144.809c0 14.27-2.097 28.237-6.15 41.709 78.673 1.367 142.279 65.686 142.279 144.681 0 13.627-1.875 27.004-5.577 39.922 77.978 2.155 140.787 66.111 140.787 144.601zM591.071 882.814c0.105 0.675 0.162 1.362 0.162 2.045 0 4.66-0.485 9.205-1.3 13.632 4.88 6.667 7.205 9.065 13.495 15.32l2.737 2.73c18.070 18.075 24.119 17.857 23.949 17.982 4.5-2.93 8.92-24.712 11.842-39.124l1.725-8.437c0.825-4 3.512-7.357 7.225-9.050 3.725-1.68 8.007-1.505 11.575 0.487 41.816 23.487 115.69 32.312 146.909 35.099-2.782-31.199-11.595-105.030-35.107-146.904-1.992-3.562-2.175-7.857-0.487-11.575 1.695-3.712 5.050-6.4 9.050-7.225l8.45-1.732c14.407-2.917 36.182-7.337 38.969-11.412 0.012-0.25 0.232-6.3-17.837-24.374-9.255-9.255-19.437-17.315-30.024-24.669-21.447 53.186-73.506 90.86-134.279 90.86-28.707 0-55.421-8.5-77.953-22.967l20.899 129.314zM528.915 631.658c0 65.728 53.479 119.21 119.21 119.21 65.728 0 119.21-53.481 119.21-119.21 0-65.731-53.481-119.21-119.21-119.21s-119.21 53.481-119.21 119.21zM630.287 451.725c0-65.728-53.474-119.21-119.202-119.21s-119.21 53.481-119.21 119.21c0 12.662 2.050 25.067 5.932 36.969 52.959 8.105 96.47 44.901 114.19 94.060 17.507-48.564 60.174-85.073 112.265-93.765 3.942-11.992 6.025-24.494 6.025-37.264zM516.115 934.376c26.979 0 48.991-21.687 49.504-48.549l-25.547-158.096c-12.17-13.67-21.752-29.619-28.077-47.166-5.597 15.525-13.65 29.874-23.889 42.434l-21.504 162.654c0.427 26.944 22.477 48.724 49.514 48.724zM375.868 750.868c65.731 0 119.21-53.481 119.21-119.21 0-65.731-53.479-119.21-119.21-119.21-65.728 0-119.202 53.479-119.202 119.21s53.474 119.21 119.202 119.21zM121.457 451.725c0 65.728 53.474 119.21 119.202 119.21 1.342 0 2.662-0.077 3.992-0.122 20.080-43.126 60.709-74.688 109.285-82.12 3.88-11.892 5.935-24.302 5.935-36.969 0-65.728-53.481-119.21-119.21-119.21-65.731 0.002-119.205 53.484-119.205 119.212zM256.666 267.199c0 14.407 2.58 28.459 7.582 41.814 51.319 8.462 93.538 43.906 111.625 91.31 18.085-47.401 60.299-82.843 111.612-91.31 5.007-13.34 7.595-27.392 7.595-41.816 0-65.728-53.479-119.21-119.21-119.21-65.731 0.002-119.205 53.481-119.205 119.212zM511.998-38.401c-65.728 0-119.21 53.481-119.21 119.21 0 15.22 2.912 29.974 8.47 43.951 51.406 9.145 93.405 45.441 110.74 93.533 17.347-48.126 59.396-84.435 110.85-93.55 5.54-13.977 8.36-28.754 8.36-43.936 0-65.726-53.481-119.207-119.21-119.207zM648.124 147.99c-65.731 0-119.21 53.481-119.21 119.21 0 14.565 2.715 28.687 7.805 42.129 51.289 9.217 93.178 45.479 110.487 93.495 17.535-48.644 60.314-85.188 112.52-93.805 5.012-13.35 7.607-27.394 7.607-41.819 0-65.731-53.479-119.21-119.21-119.21zM783.333 332.515c-65.728 0-119.21 53.481-119.21 119.21 0 12.67 2.057 25.074 5.935 36.969 48.896 7.48 89.755 39.404 109.697 82.965 1.157-0.345 2.307-0.722 3.577-0.722 65.731 0 119.21-53.481 119.21-119.21s-53.479-119.212-119.21-119.212z" />
<glyph unicode="&#xe91f;" glyph-name="down-arrow" d="M911.082 356.394c-8.32 8.32-21.846 8.32-30.166 0l-368.894-368.896-368.94 368.896c-8.32 8.32-21.846 8.32-30.166 0s-8.32-21.846 0-30.166l384-384c4.182-4.138 9.642-6.23 15.104-6.23s10.922 2.090 15.062 6.23l384 384c8.32 8.322 8.32 21.846 0 30.166zM512.022 960c-11.776 0-21.334-9.558-21.334-21.334v-981.334c0-11.776 9.558-21.334 21.334-21.334s21.334 9.558 21.334 21.334v981.334c-0.002 11.776-9.558 21.334-21.334 21.334z" />
<glyph unicode="&#xe920;" glyph-name="check-mark" d="M1018.492 786.773c-7.897 8.738-21.391 9.418-30.132 1.519l-701.141-633.847-249.325 307.003c-7.427 9.145-20.865 10.536-30.008 3.111-9.148-7.427-10.539-20.863-3.113-30.008l263.505-324.464c3.69-4.546 9.085-7.373 14.924-7.824 0.548-0.041 1.094-0.063 1.64-0.063 5.265 0 10.37 1.95 14.304 5.508l717.827 648.933c8.738 7.902 9.421 21.391 1.519 30.132z" />
<glyph unicode="&#xe921;" glyph-name="filter" d="M405.333-64c-3.627 0-7.253 0.896-10.496 2.773-6.699 3.797-10.837 10.88-10.837 18.56v431.019c0 18.304-7.851 35.712-21.504 47.829l-326.741 290.261c-22.699 20.096-35.755 49.28-35.755 79.957v89.6c0 35.285 28.715 64 64 64h896c35.285 0 64-28.715 64-64v-89.6c0-30.677-13.056-59.861-35.797-80l-326.699-290.261c-13.653-12.117-21.504-29.525-21.504-47.787v-278.827c0-22.315-11.861-43.349-31.061-54.869l-192.683-115.584c-3.328-2.048-7.125-3.072-10.923-3.072zM64 917.333c-11.733 0-21.333-9.557-21.333-21.333v-89.6c0-18.475 7.808-36.011 21.376-48l326.784-290.304c22.741-20.224 35.84-49.28 35.84-79.744v-393.344l160.341 96.171c6.357 3.84 10.325 10.88 10.325 18.304v278.827c0 30.464 13.099 59.563 35.84 79.744l326.741 290.261c13.611 12.075 21.419 29.611 21.419 48.085v89.6c0 11.776-9.6 21.333-21.333 21.333z" />
<glyph unicode="&#xe922;" glyph-name="bullet-list" d="M106.667 661.333c-58.837 0-106.667 47.829-106.667 106.667s47.829 106.667 106.667 106.667 106.667-47.829 106.667-106.667-47.829-106.667-106.667-106.667zM106.667 832c-35.285 0-64-28.715-64-64s28.715-64 64-64 64 28.715 64 64-28.715 64-64 64zM106.667 320c-58.837 0-106.667 47.829-106.667 106.667s47.829 106.667 106.667 106.667 106.667-47.829 106.667-106.667-47.829-106.667-106.667-106.667zM106.667 490.667c-35.285 0-64-28.715-64-64s28.715-64 64-64 64 28.715 64 64-28.715 64-64 64zM106.667-21.333c-58.837 0-106.667 47.829-106.667 106.667s47.829 106.667 106.667 106.667 106.667-47.829 106.667-106.667-47.829-106.667-106.667-106.667zM106.667 149.333c-35.285 0-64-28.715-64-64s28.715-64 64-64 64 28.715 64 64-28.715 64-64 64zM1002.667 746.667h-682.667c-11.776 0-21.333 9.557-21.333 21.333s9.557 21.333 21.333 21.333h682.667c11.776 0 21.333-9.557 21.333-21.333s-9.557-21.333-21.333-21.333zM1002.667 405.333h-682.667c-11.776 0-21.333 9.557-21.333 21.333s9.557 21.333 21.333 21.333h682.667c11.776 0 21.333-9.557 21.333-21.333s-9.557-21.333-21.333-21.333zM1002.667 64h-682.667c-11.776 0-21.333 9.557-21.333 21.333s9.557 21.333 21.333 21.333h682.667c11.776 0 21.333-9.557 21.333-21.333s-9.557-21.333-21.333-21.333z" />
<glyph unicode="&#xe923;" glyph-name="flash" d="M879.665 556.591c-3.835 6.95-11.133 11.263-19.063 11.263h-348.614v370.402c0 9.979-6.799 18.715-16.471 21.092-9.651 2.418-19.784-2.025-24.51-10.805l-326.823-610.069c-3.617-6.755-3.398-14.948 0.502-21.484s11.003-10.59 18.674-10.59h305.035v-348.611c0-9.695 6.427-18.216 15.754-20.938 1.984-0.543 4.030-0.85 6.034-0.85 7.342 0 14.381 3.746 18.476 10.133l370.399 588.281c4.204 6.752 4.464 15.228 0.608 22.177zM511.968 33.282v294.902c0 12.048-9.74 21.788-21.788 21.788h-290.435l268.647 501.476v-305.383c0-12.048 9.74-21.788 21.788-21.788h330.917z" />
<glyph unicode="&#xe924;" glyph-name="play-button" d="M789.334 874.666h-554.668c-129.408 0-234.666-105.258-234.666-234.666v-384c0-129.408 105.258-234.666 234.666-234.666h554.666c129.41 0 234.668 105.258 234.668 234.666v384c0 129.408-105.258 234.666-234.666 234.666zM981.334 256c0-105.856-86.144-192-192-192h-554.668c-105.856 0-192 86.144-192 192v384c0 105.856 86.144 192 192 192h554.666c105.856 0 192-86.144 192-192v-384zM715.52 465.92l-298.666 192c-6.57 4.31-14.89 4.522-21.76 0.81-6.828-3.754-11.094-10.922-11.094-18.73v-384c0-7.808 4.266-14.976 11.094-18.73 3.2-1.706 6.698-2.602 10.24-2.602 4.010 0 8.022 1.11 11.562 3.414l298.666 192c6.102 3.882 9.77 10.666 9.77 17.92 0.002 7.252-3.668 14.036-9.812 17.918zM426.666 295.082v305.836l237.868-152.918-237.868-152.918z" />
<glyph unicode="&#xe925;" glyph-name="calendar" d="M277.333 320h-128c-11.776 0-21.333 9.557-21.333 21.333v128c0 11.776 9.557 21.333 21.333 21.333h128c11.776 0 21.333-9.557 21.333-21.333v-128c0-11.776-9.557-21.333-21.333-21.333zM170.667 362.667h85.333v85.333h-85.333zM277.333 64h-128c-11.776 0-21.333 9.557-21.333 21.333v128c0 11.776 9.557 21.333 21.333 21.333h128c11.776 0 21.333-9.557 21.333-21.333v-128c0-11.776-9.557-21.333-21.333-21.333zM170.667 106.667h85.333v85.333h-85.333zM576 320h-128c-11.776 0-21.333 9.557-21.333 21.333v128c0 11.776 9.557 21.333 21.333 21.333h128c11.776 0 21.333-9.557 21.333-21.333v-128c0-11.776-9.557-21.333-21.333-21.333zM469.333 362.667h85.333v85.333h-85.333zM576 64h-128c-11.776 0-21.333 9.557-21.333 21.333v128c0 11.776 9.557 21.333 21.333 21.333h128c11.776 0 21.333-9.557 21.333-21.333v-128c0-11.776-9.557-21.333-21.333-21.333zM469.333 106.667h85.333v85.333h-85.333zM874.667 320h-128c-11.776 0-21.333 9.557-21.333 21.333v128c0 11.776 9.557 21.333 21.333 21.333h128c11.776 0 21.333-9.557 21.333-21.333v-128c0-11.776-9.557-21.333-21.333-21.333zM768 362.667h85.333v85.333h-85.333zM917.333-64h-810.667c-58.795 0-106.667 47.872-106.667 106.667v725.333c0 58.795 47.872 106.667 106.667 106.667h810.667c58.795 0 106.667-47.872 106.667-106.667v-725.333c0-58.795-47.872-106.667-106.667-106.667zM106.667 832c-35.285 0-64-28.715-64-64v-725.333c0-35.285 28.715-64 64-64h810.667c35.285 0 64 28.715 64 64v725.333c0 35.285-28.715 64-64 64zM1002.667 576h-981.333c-11.776 0-21.333 9.557-21.333 21.333s9.557 21.333 21.333 21.333h981.333c11.776 0 21.333-9.557 21.333-21.333s-9.557-21.333-21.333-21.333zM234.667 746.667c-11.776 0-21.333 9.557-21.333 21.333v170.667c0 11.776 9.557 21.333 21.333 21.333s21.333-9.557 21.333-21.333v-170.667c0-11.776-9.557-21.333-21.333-21.333zM789.333 746.667c-11.776 0-21.333 9.557-21.333 21.333v170.667c0 11.776 9.557 21.333 21.333 21.333s21.333-9.557 21.333-21.333v-170.667c0-11.776-9.557-21.333-21.333-21.333z" />
<glyph unicode="&#xe926;" glyph-name="sharing" d="M832 661.333c-82.347 0-149.333 66.987-149.333 149.333s66.987 149.333 149.333 149.333 149.333-66.987 149.333-149.333-66.987-149.333-149.333-149.333zM832 917.333c-58.837 0-106.667-47.872-106.667-106.667s47.829-106.667 106.667-106.667 106.667 47.872 106.667 106.667-47.829 106.667-106.667 106.667zM832-64.001c-82.347 0-149.333 66.987-149.333 149.333s66.987 149.333 149.333 149.333 149.333-66.987 149.333-149.333-66.987-149.333-149.333-149.333zM832 192c-58.837 0-106.667-47.872-106.667-106.667s47.829-106.667 106.667-106.667 106.667 47.872 106.667 106.667-47.829 106.667-106.667 106.667zM192 298.667c-82.347 0-149.333 66.987-149.333 149.333s66.987 149.333 149.333 149.333 149.333-66.987 149.333-149.333-66.987-149.333-149.333-149.333zM192 554.667c-58.837 0-106.667-47.872-106.667-106.667s47.829-106.667 106.667-106.667 106.667 47.872 106.667 106.667-47.829 106.667-106.667 106.667zM720.64 127.147c-3.584 0-7.211 0.896-10.496 2.773l-417.237 236.373c-10.24 5.803-13.867 18.816-8.021 29.099 5.803 10.283 18.901 13.867 29.056 8.021l417.237-236.373c10.24-5.803 13.867-18.816 8.021-29.099-3.968-6.912-11.179-10.795-18.56-10.795zM303.36 489.813c-7.424 0-14.635 3.883-18.56 10.795-5.845 10.24-2.219 23.253 8.021 29.099l417.237 236.373c10.069 5.76 23.253 2.219 29.056-8.021 5.845-10.24 2.219-23.253-8.021-29.099l-417.237-236.373c-3.285-1.877-6.912-2.773-10.496-2.773z" />
<glyph unicode="&#xe927;" glyph-name="play" d="M203.572 893.635c7.105 3.657 15.659 3.036 22.161-1.609l597.332-426.665c5.679-4.058 9.015-10.637 8.934-17.617-0.085-6.98-3.58-13.478-9.353-17.395l-597.335-405.333c-6.536-4.437-14.988-4.898-21.968-1.199s-11.344 10.953-11.344 18.85v832c0 7.991 4.466 15.312 11.572 18.969zM234.667 833.212v-750.289l538.667 365.525z" />
<glyph unicode="&#xe928;" glyph-name="pen" d="M868.398 591.602l-234.664 234.664c-8.32 8.32-21.846 8.32-30.166 0s-8.32-21.846 0-30.166l234.662-234.662c4.182-4.138 9.642-6.23 15.104-6.23s10.922 2.090 15.062 6.23c8.322 8.32 8.322 21.844 0.002 30.164zM633.734 826.266c-8.32 8.32-21.846 8.32-30.166 0l-298.661-298.663c-8.32-8.32-8.32-21.846 0-30.166 4.182-4.138 9.642-6.23 15.104-6.23s10.922 2.090 15.062 6.23l298.661 298.663c8.32 8.32 8.32 21.846 0 30.166zM991.021 927.897c-42.069 42.069-115.412 42.069-157.48 0l-741.962-741.62c-2.006-2.048-3.67-4.48-4.694-7.168l-85.333-213.331c-3.2-7.894-1.366-16.938 4.694-22.998 4.096-4.054 9.558-6.23 15.104-6.23 2.646 0 5.376 0.512 7.894 1.536l213.331 85.333c4.608 1.878 8.406 5.248 10.752 9.514 13.568 16.426 130.814 137.128 737.652 736.842 21.206 20.95 32.937 48.895 33.023 78.719 0.084 29.868-11.522 57.983-32.981 79.403zM960.941 800.154c-566.733-560.163-703.861-698.443-737.012-738.25l-164.307-65.705 65.237 163.027 738.846 738.548c25.984 25.942 70.869 26.24 97.448-0.298 13.098-13.056 20.224-30.422 20.182-48.853-0.042-18.348-7.296-35.585-20.394-48.469zM271.074 79.61l-127.998 127.998c-8.32 8.32-21.846 8.32-30.166 0s-8.32-21.846 0-30.166l127.998-127.998c4.182-4.138 9.642-6.23 15.104-6.23s10.922 2.090 15.062 6.23c8.32 8.322 8.32 21.846 0 30.166z" />
<glyph unicode="&#xe929;" glyph-name="fire" d="M738.43 640.372c-182.778 111.202-97.066 268.156-93.388 274.68 5.336 9.284 5.32 20.706-0.044 29.974-5.362 9.268-15.258 14.974-25.966 14.974-94.086 0-167.762-26.732-218.98-79.456-87.518-90.090-83.458-230.304-81.726-290.18 0.192-6.632 0.358-12.364 0.358-16.62 0-44.456 7.132-85.498 13.426-121.708 4.056-23.334 7.558-43.486 8.18-59.33 0.666-16.96-2.43-20.848-2.562-21.004-0.442-0.524-4.122-2.482-14.072-2.482-11.348 0-19.714 3.708-27.126 12.018-28.952 32.464-30.954 121.108-25.418 169.334 0.99 8.504-1.7 17.024-7.394 23.416-5.692 6.392-13.844 10.048-22.404 10.048-77.89 0-136.092-127.376-136.092-241.264 0-53.538 10.768-105.984 32.006-155.88 20.532-48.236 49.81-91.772 87.024-129.392 77.504-78.35 179.69-121.5 287.738-121.5 108.482 0 210.642 42.54 287.662 119.78 76.82 77.040 119.126 178.966 119.126 286.996-0.002 137.844-107.854 253.494-180.348 297.596zM511.99-4c-187.966 0-346.766 158.802-346.766 346.776 0 45.714 10.908 93.7 29.926 131.65 4.442 8.866 9 16.472 13.498 22.88 0.502-49.494 8.342-116.964 43.052-155.944 18.724-21.026 43.606-32.14 71.958-32.14 26.486 0 46.67 8.028 59.986 23.86 24.896 29.596 17.254 73.564 7.582 129.23-5.878 33.82-12.54 72.154-12.54 111.434 0 5.126-0.178 11.256-0.382 18.358-1.642 56.716-5.060 174.734 64.786 246.632 31.354 32.278 75.13 51.922 130.51 58.644-6.252-20.76-11.642-47.114-11.85-76.622-0.46-65.016 24.408-157.978 145.496-231.646 58.586-35.642 151.532-134.036 151.532-246.338-0.002-191.212-155.57-346.774-346.788-346.774z" />
<glyph unicode="&#xe92a;" glyph-name="up" d="M1017.489 218.864l-489.75 489.75c-8.682 8.682-22.796 8.682-31.478 0l-489.748-489.75c-8.682-8.682-8.682-22.796 0-31.478s22.796-8.682 31.478 0l473.989 474.033 473.989-474.033c4.364-4.318 10.061-6.501 15.761-6.501s11.397 2.181 15.761 6.501c8.68 8.682 8.68 22.796-0.002 31.478z" />
<glyph unicode="&#xe92b;" glyph-name="linkedin" d="M793.173-64c4.395 0 203.179 0.043 198.827 0.043 17.664 0 32 14.336 32 32-14.933 335.232 78.592 688.981-270.421 688.981-67.115 0-120.576-22.912-159.104-53.205 0 62.336-67.371 27.861-222.891 37.12-17.664 0-32-14.336-32-32 12.885-604.416-28.757-672.896 32-672.896h198.827c57.728 0 20.992 81.408 32 349.355 0 110.677 32 132.352 87.296 132.352 61.184 0 71.467-42.496 71.467-137.728 10.965-263.125-25.515-344.021 32-344.021zM689.707 481.749c-191.616 0-151.296-210.688-151.296-481.707h-134.827v576.896h126.891v-55.381c0-30.72 46.805-45.824 63.104-14.933 20.992 39.851 75.52 86.4 160 86.4 150.485 0 206.421-73.941 206.421-272.896v-320.128h-134.827c0 304.811 32.256 481.749-135.467 481.749zM47.872 640.896c-60.587 0-19.115-67.627-32-672.896 0-17.664 14.336-32 32-32h199.040c60.587 0 19.115 67.627 32 672.896 0 55.253-80.256 22.656-231.040 32zM214.912 0h-135.040v576.896h135.040zM147.285 960c-195.243 0-194.048-295.637 0-295.637 193.92 0 195.456 295.637 0 295.637zM147.285 728.363c-109.568 0-110.592 167.637 0 167.637 110.805 0 109.397-167.637 0-167.637z" />
<glyph unicode="&#xe92c;" glyph-name="phone" d="M512 64c-176.469 0-320 143.531-320 320s143.531 320 320 320 320-143.531 320-320-143.531-320-320-320zM512 661.333c-152.917 0-277.333-124.416-277.333-277.333s124.416-277.333 277.333-277.333 277.333 124.416 277.333 277.333-124.416 277.333-277.333 277.333zM917.333-64c-11.776 0-21.333 9.557-21.333 21.333v170.667c0 66.176-42.624 123.648-106.027 143.019-11.307 3.413-17.621 15.36-14.208 26.624 3.456 11.221 15.488 17.664 26.624 14.165 81.536-24.832 136.277-98.731 136.277-183.808v-170.667c0-11.776-9.557-21.333-21.333-21.333zM106.667-64c-11.776 0-21.333 9.557-21.333 21.333v170.667c0 85.077 54.741 158.976 136.277 183.808 11.264 3.541 23.168-2.901 26.624-14.165 3.413-11.264-2.901-23.211-14.208-26.624-63.403-19.371-106.027-76.843-106.027-143.019v-170.667c0-11.776-9.557-21.333-21.333-21.333zM576 661.333c-11.776 0-21.333 9.557-21.333 21.333v128c0 11.776 9.557 21.333 21.333 21.333s21.333-9.557 21.333-21.333v-128c0-11.776-9.557-21.333-21.333-21.333zM448 661.333c-11.776 0-21.333 9.557-21.333 21.333v128c0 11.776 9.557 21.333 21.333 21.333s21.333-9.557 21.333-21.333v-128c0-11.776-9.557-21.333-21.333-21.333zM1002.667-64h-981.333c-11.776 0-21.333 9.557-21.333 21.333s9.557 21.333 21.333 21.333h981.333c11.776 0 21.333-9.557 21.333-21.333s-9.557-21.333-21.333-21.333zM704 789.333h-384c-35.285 0-64 28.715-64 64v42.667c0 35.285 28.715 64 64 64h384c35.285 0 64-28.715 64-64v-42.667c0-35.285-28.715-64-64-64zM320 917.333c-11.733 0-21.333-9.557-21.333-21.333v-42.667c0-11.776 9.6-21.333 21.333-21.333h384c11.733 0 21.333 9.557 21.333 21.333v42.667c0 11.776-9.6 21.333-21.333 21.333zM896 746.667c-11.776 0-21.333 9.557-21.333 21.333v21.333c0 35.285-28.715 64-64 64h-64c-11.776 0-21.333 9.557-21.333 21.333s9.557 21.333 21.333 21.333h64c58.837 0 106.667-47.872 106.667-106.667v-21.333c0-11.776-9.557-21.333-21.333-21.333zM128 746.667c-11.776 0-21.333 9.557-21.333 21.333v21.333c0 58.795 47.829 106.667 106.667 106.667h64c11.776 0 21.333-9.557 21.333-21.333s-9.557-21.333-21.333-21.333h-64c-35.285 0-64-28.715-64-64v-21.333c0-11.776-9.557-21.333-21.333-21.333zM1002.667 618.667h-213.333c-11.776 0-21.333 9.557-21.333 21.333v42.667c0 58.795 47.829 106.667 106.667 106.667h42.667c58.837 0 106.667-47.872 106.667-106.667v-42.667c0-11.776-9.557-21.333-21.333-21.333zM810.667 661.333h170.667v21.333c0 35.285-28.715 64-64 64h-42.667c-35.285 0-64-28.715-64-64zM234.667 618.667h-213.333c-11.776 0-21.333 9.557-21.333 21.333v42.667c0 58.795 47.829 106.667 106.667 106.667h42.667c58.837 0 106.667-47.872 106.667-106.667v-42.667c0-11.776-9.557-21.333-21.333-21.333zM42.667 661.333h170.667v21.333c0 35.285-28.715 64-64 64h-42.667c-35.285 0-64-28.715-64-64zM544 565.333c0-17.673-14.327-32-32-32s-32 14.327-32 32c0 17.673 14.327 32 32 32s32-14.327 32-32zM544 202.667c0-17.673-14.327-32-32-32s-32 14.327-32 32c0 17.673 14.327 32 32 32s32-14.327 32-32zM725.333 384c0-17.673-14.327-32-32-32s-32 14.327-32 32c0 17.673 14.327 32 32 32s32-14.327 32-32zM362.667 384c0-17.673-14.327-32-32-32s-32 14.327-32 32c0 17.673 14.327 32 32 32s32-14.327 32-32zM662.731 534.819c12.495-12.495 12.495-32.753 0-45.248s-32.753-12.495-45.248 0c-12.495 12.495-12.495 32.753 0 45.248s32.753 12.495 45.248 0zM406.304 278.429c12.495-12.495 12.495-32.753 0-45.248s-32.753-12.495-45.248 0c-12.495 12.495-12.495 32.753 0 45.248s32.753 12.495 45.248 0zM662.691 278.389c12.495-12.495 12.495-32.753 0-45.248s-32.753-12.495-45.248 0c-12.495 12.495-12.495 32.753 0 45.248s32.753 12.495 45.248 0zM406.344 534.859c12.495-12.495 12.495-32.753 0-45.248s-32.753-12.495-45.248 0c-12.495 12.495-12.495 32.753 0 45.248s32.753 12.495 45.248 0z" />
<glyph unicode="&#xe92d;" glyph-name="server" d="M512.003 576.003c-77.097 0-139.636 62.54-139.636 139.636 0 77.088 62.54 139.636 139.636 139.636 77.088 0 139.636-62.548 139.636-139.636 0-77.097-62.548-139.636-139.636-139.636zM512.003 808.724c-51.205 0-93.094-41.889-93.094-93.085 0-51.205 41.889-93.094 93.094-93.094 51.196 0 93.085 41.889 93.085 93.094 0 51.196-41.889 93.085-93.085 93.085zM768 389.815h-46.543c0 43.926-86.114 93.094-209.455 93.094-123.349 0-209.455-49.168-209.455-93.094h-46.551c0 78.256 112.585 139.636 256.006 139.636 143.412 0 255.997-61.381 255.997-139.636zM1023.997-52.361h-1023.997v279.273h302.548v-46.551h-256.006v-186.179h930.912v186.179h-255.997v46.551h302.54zM512.003 124.222l-172.509 172.509h-176.582v651.631h698.182v-651.631h-176.582zM209.455 343.273h149.233l153.315-153.307 153.307 153.307h149.233v558.545h-605.088zM162.912 110.543h-46.551v-46.543h46.551zM279.273 110.543h-46.543v-46.543h46.543zM395.634 110.543h-46.543v-46.543h46.543z" />
<glyph unicode="&#xe92e;" glyph-name="valid" d="M21.333 710.095c0 55.115 43.859 100.571 98.909 100.571h698.181c55.053 0 98.91-45.456 98.91-100.571v-219.429c0-11.78-9.553-21.333-21.333-21.333s-21.333 9.553-21.333 21.333v219.429c0 32.408-25.604 57.905-56.243 57.905h-698.181c-30.638 0-56.242-25.496-56.242-57.905v-396.192c0-32.405 25.605-57.903 56.242-57.903h306.424c11.78 0 21.333-9.553 21.333-21.333s-9.553-21.333-21.333-21.333h-306.424c-55.050 0-98.909 45.457-98.909 100.57zM21.333 661.333c0 11.782 9.551 21.333 21.333 21.333h853.333c11.78 0 21.333-9.551 21.333-21.333s-9.553-21.333-21.333-21.333h-853.333c-11.782 0-21.333 9.551-21.333 21.333zM106.667 448c0 11.78 9.551 21.333 21.333 21.333h85.333c11.782 0 21.333-9.553 21.333-21.333s-9.551-21.333-21.333-21.333h-85.333c-11.782 0-21.333 9.553-21.333 21.333zM106.667 341.333c0 11.78 9.551 21.333 21.333 21.333h170.667c11.782 0 21.333-9.553 21.333-21.333s-9.551-21.333-21.333-21.333h-170.667c-11.782 0-21.333 9.553-21.333 21.333zM768 384c-106.039 0-192-85.961-192-192s85.961-192 192-192 192 85.961 192 192-85.961 192-192 192zM533.333 192c0 129.604 105.062 234.667 234.667 234.667s234.667-105.062 234.667-234.667-105.062-234.667-234.667-234.667-234.667 105.062-234.667 234.667zM838.246 228.42c8.333 8.329 21.841 8.329 30.174 0 8.329-8.333 8.329-21.841 0-30.174l-85.333-85.333c-8.333-8.329-21.841-8.329-30.174 0l-64 64c-8.329 8.333-8.329 21.841 0 30.174 8.333 8.329 21.841 8.329 30.174 0l48.913-48.917z" />
<glyph unicode="&#xe92f;" glyph-name="right" d="M772.616 463.733l-489.755 489.755c-8.682 8.682-22.797 8.682-31.479 0s-8.682-22.797 0-31.479l474.038-473.994-474.036-474.036c-8.682-8.682-8.682-22.797 0-31.479 4.364-4.318 10.062-6.501 15.761-6.501s11.397 2.181 15.717 6.501l489.753 489.755c8.682 8.682 8.682 22.794 0 31.476z" />
<glyph unicode="&#xe930;" glyph-name="book" d="M787.884 115.806h-66.978c-7.068 0-12.782-5.714-12.782-12.782s5.727-12.782 12.782-12.782h66.978c7.068 0 12.782 5.714 12.782 12.782s-5.712 12.782-12.782 12.782zM787.884 168.466h-66.978c-7.068 0-12.782-5.714-12.782-12.782s5.727-12.782 12.782-12.782h66.978c7.068 0 12.782 5.714 12.782 12.782s-5.712 12.782-12.782 12.782zM960.377 115.806h-66.978c-7.068 0-12.782-5.714-12.782-12.782s5.714-12.782 12.782-12.782h66.978c7.068 0 12.782 5.714 12.782 12.782s-5.714 12.782-12.782 12.782zM960.377 168.466h-66.978c-7.068 0-12.782-5.714-12.782-12.782s5.714-12.782 12.782-12.782h66.978c7.068 0 12.782 5.714 12.782 12.782s-5.714 12.782-12.782 12.782zM614.893 723.407h-66.99c-7.068 0-12.782-5.714-12.782-12.782s5.727-12.782 12.782-12.782h66.99c7.068 0 12.782 5.714 12.782 12.782s-5.712 12.782-12.782 12.782zM614.906 673.455h-66.99c-7.068 0-12.782-5.714-12.782-12.782s5.714-12.782 12.782-12.782h66.99c7.068 0 12.782 5.714 12.782 12.782s-5.724 12.782-12.782 12.782zM434.388 599.652h-121.019c-7.068 0-12.782-5.714-12.782-12.782s5.714-12.782 12.782-12.782h121.019c7.068 0 12.782 5.714 12.782 12.782s-5.714 12.782-12.782 12.782zM373.891 783.916c-40.415 0-73.291-32.876-73.291-73.291 0-40.403 32.876-73.279 73.291-73.279 40.403 0 73.279 32.876 73.279 73.279 0 40.415-32.876 73.291-73.279 73.291zM373.891 662.91c-26.33 0-47.728 21.41-47.728 47.715 0 26.33 21.397 47.728 47.728 47.728 26.318 0 47.715-21.41 47.715-47.728s-21.41-47.715-47.715-47.715zM194.33 599.652h-121.019c-7.068 0-12.782-5.714-12.782-12.782s5.714-12.782 12.782-12.782h121.019c7.068 0 12.782 5.714 12.782 12.782s-5.714 12.782-12.782 12.782zM133.833 783.916c-40.415 0-73.291-32.876-73.291-73.291-0.012-40.403 32.876-73.279 73.291-73.279 40.403 0 73.279 32.876 73.279 73.279 0 40.415-32.876 73.291-73.279 73.291zM133.833 662.91c-26.33 0-47.728 21.41-47.728 47.715-0.012 26.33 21.397 47.728 47.728 47.728 26.318 0 47.715-21.41 47.715-47.728s-21.41-47.715-47.715-47.715zM1010.354 808.087h-158.726v139.131c0 7.068-5.714 12.782-12.782 12.782h-166.947c-7.068 0-12.782-5.714-12.782-12.782v-139.131h-155.44v52.803c0 7.068-5.714 12.782-12.782 12.782h-477.25c-7.068 0-12.782-5.714-12.782-12.782v-912.106c0-7.068 5.714-12.782 12.782-12.782h996.709c7.068 0 12.782 6.301 12.782 13.369v845.934c0 7.068-5.714 12.782-12.782 12.782zM239.489-38.436h-213.061v886.544h213.061v-886.544zM478.114-38.449h-213.061v886.557h213.061v-886.557zM659.118-38.449h-155.44v820.972h155.44v-820.972zM826.065-38.436h-141.383v972.872h141.38v-972.872zM997.572-38.449h-145.944v820.972h145.944v-820.972z" />
<glyph unicode="&#xe931;" glyph-name="game-console" d="M289.148 103.916h29.199c15.879 0 28.799-12.93 28.799-28.799v-29.209c0-7.070 5.732-12.793 12.803-12.793h81.455c7.070 0 12.793 5.723 12.793 12.793v29.209c0 15.869 12.93 28.799 28.799 28.799h29.199c7.080 0 12.803 5.723 12.803 12.793v81.455c0 7.070-5.723 12.803-12.803 12.803h-29.199c-15.869 0-28.799 12.92-28.799 28.809v29.199c0 7.080-5.723 12.803-12.793 12.803h-81.455c-7.070 0-12.803-5.723-12.803-12.803v-29.199c0-15.889-12.92-28.809-28.799-28.809h-29.199c-7.070 0-12.803-5.732-12.803-12.803v-81.455c0-7.070 5.732-12.793 12.803-12.793zM301.951 185.361h16.396c30 0 54.404 24.414 54.404 54.414v16.396h55.85v-16.396c0-30 24.395-54.414 54.395-54.414h16.406v-55.85h-16.406c-30 0-54.395-24.395-54.395-54.395v-16.406h-55.85v16.406c0 30-24.404 54.395-54.404 54.395h-16.396zM842.615 960h-660.811c-7.080 0-12.803-5.723-12.803-12.803v-998.398c0-7.070 5.723-12.803 12.803-12.803h660.811c7.070 0 12.793 5.732 12.793 12.803v998.398c0 7.080-5.723 12.803-12.793 12.803zM829.813-38.398h-635.215v972.803h635.215zM295.379 375.459h59.092c7.080 0 12.803 5.732 12.803 12.803 0 7.080-5.723 12.803-12.803 12.803h-59.092c-7.080 0-12.803-5.723-12.803-12.803 0-7.070 5.723-12.803 12.803-12.803zM418.953 401.064c-7.080 0-12.803-5.723-12.803-12.803 0-7.070 5.723-12.803 12.803-12.803h59.082c7.080 0 12.803 5.732 12.803 12.803 0 7.080-5.723 12.803-12.803 12.803zM614.412 388.262c0 7.080-5.723 12.803-12.803 12.803h-59.102c-7.070 0-12.793-5.723-12.793-12.803 0-7.070 5.723-12.803 12.793-12.803h59.102c7.080 0 12.803 5.732 12.803 12.803zM725.174 375.459c7.080 0 12.803 5.732 12.803 12.803 0 7.080-5.723 12.803-12.803 12.803h-59.102c-7.070 0-12.793-5.723-12.793-12.803 0-7.070 5.723-12.803 12.793-12.803zM295.379 453.867h429.795c7.080 0 12.803 5.723 12.803 12.793v378.936c0 7.080-5.723 12.803-12.803 12.803h-429.795c-7.080 0-12.803-5.723-12.803-12.803v-378.936c0-7.070 5.723-12.793 12.803-12.793zM308.172 832.803h404.199v-353.34h-404.199zM672.996 241.436c-46.309 0-83.994-37.686-83.994-83.994 0-46.318 37.686-84.004 83.994-84.004 46.318 0 84.004 37.686 84.004 84.004 0 46.309-37.686 83.994-84.004 83.994zM672.996 99.033c-32.197 0-58.398 26.201-58.398 58.408 0 32.197 26.201 58.398 58.398 58.398 32.207 0 58.408-26.201 58.408-58.398 0-32.207-26.201-58.408-58.408-58.408z" />
<glyph unicode="&#xe932;" glyph-name="shirt" d="M801.492 528.005c-1.5 4.637-5.512 8.025-10.342 8.713l-66.793 9.663-29.857 60.175c-4.325 8.725-18.612 8.725-22.938 0l-29.857-60.175-66.788-9.663c-4.83-0.688-8.845-4.075-10.345-8.713-1.507-4.65-0.237-9.738 3.263-13.137l48.288-46.825-11.393-66.1c-0.832-4.8 1.138-9.65 5.075-12.525 3.933-2.862 9.138-3.237 13.47-0.987l59.757 31.237 59.758-31.237c1.87-0.975 3.9-1.463 5.93-1.463 2.657 0 5.305 0.825 7.538 2.45 3.937 2.875 5.905 7.725 5.075 12.525l-11.395 66.1 48.295 46.825c3.497 3.4 4.767 8.488 3.26 13.138zM727.262 481.718c-3.030-2.938-4.418-7.2-3.7-11.362l8.145-47.25-42.745 22.35c-3.713 1.95-8.15 1.95-11.863 0l-42.745-22.35 8.142 47.25c0.717 4.162-0.67 8.425-3.7 11.362l-34.438 33.4 47.655 6.887c4.163 0.6 7.763 3.2 9.638 6.975l21.375 43.087 21.375-43.088c1.875-3.775 5.475-6.375 9.638-6.975l47.663-6.887-34.44-33.4zM430.4 618.668c-7.070 0-12.8-5.725-12.8-12.8v-42.225c0-7.075 5.73-12.8 12.8-12.8s12.8 5.725 12.8 12.8v42.225c0 7.075-5.73 12.8-12.8 12.8zM430.4 481.442c-7.070 0-12.8-5.725-12.8-12.8v-42.212c0-7.075 5.73-12.8 12.8-12.8s12.8 5.725 12.8 12.8v42.212c0 7.075-5.73 12.8-12.8 12.8zM430.4 344.233c-7.070 0-12.8-5.725-12.8-12.8v-42.212c0-7.075 5.73-12.8 12.8-12.8s12.8 5.725 12.8 12.8v42.212c0 7.073-5.73 12.8-12.8 12.8zM430.4 207.018c-7.070 0-12.8-5.725-12.8-12.8v-42.212c0-7.075 5.73-12.8 12.8-12.8s12.8 5.725 12.8 12.8v42.212c0 7.075-5.73 12.8-12.8 12.8zM732.987 889.177l0.655 1.405c2.4 5.138 1.145 11.238-3.092 14.988l-57.507 51.11c-0.183 0.163-0.37 0.325-0.567 0.488-0.143 0.112-0.288 0.225-0.438 0.337-2.313 1.7-4.938 2.413-7.7 2.488h-307.875c-3.063-0.263-5.368-0.788-7.675-2.475-0.007 0-0.007 0-0.007 0-0.007-0.013-0.012-0.013-0.018-0.013-0.15-0.112-0.292-0.225-0.438-0.337-0.2-0.163-0.388-0.325-0.567-0.488l-57.508-51.11c-4.238-3.75-5.495-9.85-3.092-14.988l1.035-2.215c-57.92-16.68-288.192-88.847-288.192-182.225v-398.55c0-99.875 58.863-190.85 149.95-231.8 0.333-0.15 0.688-0.1 1.025-0.22v-126.768c0-7.075 5.73-12.8 12.8-12.8h696.45c7.070 0 12.8 5.725 12.8 12.8v126.77c0.337 0.118 0.692 0.070 1.025 0.22 91.088 40.95 149.95 131.925 149.95 231.8v398.55c0 94.95-238.145 167.985-291.013 183.033zM666.218 928.508l40.195-35.725-95.37-204.088-76.905 68.175 132.080 171.638zM638.45 934.392l-128.050-166.4-128.050 166.4h256.1zM354.58 928.508l132.082-171.637-76.907-68.175-95.368 204.087 40.192 35.725zM163.775 548.27c-7.070 0-12.8-5.725-12.8-12.8v-431.64c-76.455 38.725-125.375 117.495-125.375 203.765v398.55c0 60.070 165.195 128.278 273.57 158.728l94.655-202.553c1.705-3.65 5.043-6.288 9-7.113 3.963-0.787 8.055 0.275 11.088 2.963l85.288 75.597v-640.097c-13.445-17.928-97.585-116.75-322.625-131.573v573.372c0 7.073-5.73 12.8-12.8 12.8zM327.51-38.395c108.62 31.497 163.262 82.337 184.49 107.025 21.23-24.688 75.872-75.528 184.492-107.025h-368.982zM998.4 307.592c0-86.27-48.92-165.040-125.375-203.765v431.643c0 7.075-5.73 12.8-12.8 12.8s-12.8-5.725-12.8-12.8v-573.365c-225.33 14.845-309.345 113.842-322.625 131.575v637.25l82.087-72.76c2.37-2.1 5.395-3.225 8.492-3.225 0.863 0 1.733 0.087 2.595 0.263 3.955 0.825 7.293 3.462 9 7.112l95.025 203.348c108.295-30.023 276.4-98.887 276.4-159.523v-398.553z" />
<glyph unicode="&#xe933;" glyph-name="plus" d="M496.001-64h31.999v496.001h496.001v31.999h-496.001v496.001h-31.999v-496.001h-496.001v-31.999h496.001z" />
<glyph unicode="&#xe934;" glyph-name="telegram" d="M17.707 482.304l250.411-124.8c9.685-4.779 21.12-4.437 30.379 0.981l222.891 129.579-134.912-119.552c-6.869-6.101-10.795-14.805-10.795-23.979v-291.2c0-30.72 39.211-43.648 57.6-19.243l108.245 143.915 267.691-152.448c18.773-10.795 42.837 0.043 47.189 21.504l166.955 832c4.992 25.003-19.883 45.397-43.008 36.096l-960-374.4c-25.771-10.069-27.435-46.123-2.645-58.453zM949.12 834.261l-146.731-731.179-253.653 144.469c-13.824 7.893-31.616 4.395-41.429-8.576l-67.627-89.899v181.077l364.843 323.243c28.885 25.557-4.309 70.997-37.291 51.627l-485.973-282.539-170.325 84.864z" />
<glyph unicode="&#xe935;" glyph-name="info" d="M512-64c-282.325 0-512 229.675-512 512s229.675 512 512 512 512-229.675 512-512-229.675-512-512-512zM512 917.333c-258.773 0-469.333-210.56-469.333-469.333s210.56-469.333 469.333-469.333 469.333 210.56 469.333 469.333-210.56 469.333-469.333 469.333zM512 618.667c-35.285 0-64 28.715-64 64s28.715 64 64 64 64-28.715 64-64-28.715-64-64-64zM512 704c-11.733 0-21.333-9.557-21.333-21.333s9.6-21.333 21.333-21.333 21.333 9.557 21.333 21.333-9.6 21.333-21.333 21.333zM512 192c-11.776 0-21.333 9.557-21.333 21.333v277.333h-42.667c-11.776 0-21.333 9.557-21.333 21.333s9.557 21.333 21.333 21.333h64c11.776 0 21.333-9.557 21.333-21.333v-298.667c0-11.776-9.557-21.333-21.333-21.333zM597.333 192h-170.667c-11.776 0-21.333 9.557-21.333 21.333s9.557 21.333 21.333 21.333h170.667c11.776 0 21.333-9.557 21.333-21.333s-9.557-21.333-21.333-21.333z" />
<glyph unicode="&#xe936;" glyph-name="wireless" d="M512 234.667c-20.096 0-36.437 16.341-36.437 36.437s16.341 36.437 36.437 36.437 36.437-16.341 36.437-36.437-16.341-36.437-36.437-36.437zM385.707 370.176c-5.333 0-10.709 2.005-14.848 6.016-8.448 8.192-8.661 21.717-0.469 30.165 37.675 38.827 88.107 60.629 142.080 61.44 53.632 0.853 105.003-19.541 143.829-57.216 8.448-8.192 8.661-21.717 0.469-30.165-8.235-8.448-21.717-8.661-30.165-0.469-30.677 29.739-71.552 47.104-113.493 45.184-42.539-0.64-82.347-17.835-112.085-48.512-4.181-4.267-9.771-6.443-15.317-6.443zM277.333 475.392c-5.333 0-10.709 2.005-14.848 6.016-8.448 8.192-8.661 21.717-0.469 30.165 65.664 67.627 153.813 105.685 248.235 107.051 96.043 0.555 183.637-33.963 251.264-99.627 8.448-8.192 8.661-21.717 0.469-30.165-8.235-8.448-21.717-8.661-30.165-0.469-59.477 57.728-137.515 88.533-220.928 87.595-82.987-1.237-160.512-34.645-218.24-94.123-4.181-4.309-9.771-6.443-15.317-6.443zM192-21.333c-105.856 0-192 86.144-192 192s86.144 192 192 192c11.776 0 21.333-9.557 21.333-21.333v-341.333c0-11.776-9.557-21.333-21.333-21.333zM170.667 318.464c-72.277-10.368-128-72.704-128-147.797s55.723-137.429 128-147.797zM832-21.333c-11.776 0-21.333 9.557-21.333 21.333v341.333c0 11.776 9.557 21.333 21.333 21.333 105.856 0 192-86.144 192-192s-86.144-192-192-192zM853.333 318.464v-295.637c72.277 10.368 128 72.704 128 147.797s-55.723 137.472-128 147.84zM106.667 295.125c-11.776 0-21.333 9.557-21.333 21.333v174.208c0 235.264 191.403 426.667 426.667 426.667s426.667-191.403 426.667-426.667v-170.667c0-11.776-9.557-21.333-21.333-21.333s-21.333 9.557-21.333 21.333v170.667c0 211.712-172.288 384-384 384s-384-172.288-384-384v-174.208c0-11.819-9.557-21.333-21.333-21.333z" />
<glyph unicode="&#xe937;" glyph-name="chat" d="M512 916.096c-282.326 0-512-190.848-512-425.43 0-120.534 61.61-234.538 169.77-315.434l-82.218-164.438c-4.352-8.662-2.262-19.158 4.992-25.558 4.010-3.542 9.002-5.334 14.080-5.334 4.138 0 8.278 1.194 11.904 3.626l179.926 120.79c67.754-25.942 139.562-39.082 213.504-39.082 282.324 0.002 512.042 190.85 512.042 425.43s-229.674 425.43-512 425.43zM511.958 107.904c-72.32 0-142.336 13.482-208.086 40.064-6.528 2.646-13.994 1.92-19.882-2.048l-122.112-81.962 54.186 108.374c4.736 9.514 1.792 21.034-6.954 27.094-105.814 73.258-166.486 179.414-166.486 291.2 0 211.072 210.56 382.762 469.334 382.762s469.334-171.648 469.334-382.72-210.562-382.764-469.334-382.764z" />
<glyph unicode="&#xe938;" glyph-name="dermis" d="M320 661.333h-298.667c-11.776 0-21.333 9.557-21.333 21.333s9.557 21.333 21.333 21.333h298.667c11.776 0 21.333-9.557 21.333-21.333s-9.557-21.333-21.333-21.333zM1002.667-64h-981.333c-11.776 0-21.333 9.557-21.333 21.333s9.557 21.333 21.333 21.333h981.333c11.776 0 21.333-9.557 21.333-21.333s-9.557-21.333-21.333-21.333zM1002.667 661.333h-298.667c-11.776 0-21.333 9.557-21.333 21.333s9.557 21.333 21.333 21.333h298.667c11.776 0 21.333-9.557 21.333-21.333s-9.557-21.333-21.333-21.333zM464.64 234.667c-67.2 0-122.496 54.699-123.307 121.899-2.261 198.955 117.845 433.749 305.92 598.187 7.637 6.656 18.987 7.040 27.051 0.853s10.624-17.195 6.144-26.325c-87.339-177.365-125.995-396.8-96.171-546.005 7.467-37.333-1.877-75.349-25.643-104.277-23.040-28.203-57.301-44.331-93.995-44.331zM599.424 848.213c-134.784-147.883-217.216-332.16-215.424-491.136 0.512-43.989 36.693-79.744 80.64-79.744 24.192 0 45.867 10.197 61.056 28.672 15.573 19.029 21.717 44.117 16.768 68.864-26.027 130.347-3.2 310.315 56.96 473.344zM470.827 106.667c-64.128 0-125.269 25.045-173.056 71.253-53.077 51.285-83.2 122.923-82.645 196.608l0.725 93.781c0.171 22.229-11.392 41.856-30.976 52.437-19.541 10.624-42.368 9.643-60.885-2.688l-90.88-60.16c-9.813-6.485-23.083-3.797-29.568 6.016s-3.797 23.083 6.016 29.568l90.88 60.16c31.957 21.205 71.125 22.912 104.789 4.651s53.547-52.011 53.291-90.325l-0.725-93.781c-0.469-62.037 24.875-122.411 69.632-165.589 41.899-40.491 96.043-61.525 152.107-59.093 53.035 2.261 103.168 24.235 141.184 61.909 39.893 40.32 61.952 93.781 61.952 150.4v75.179c0 31.232 13.44 60.629 36.864 80.725 30.976 26.581 79.061 58.283 132.096 58.283 25.515 0 49.749-7.509 72.021-22.357l90.795-60.117c9.813-6.485 12.501-19.755 6.016-29.568-6.528-9.813-19.755-12.501-29.568-6.016l-90.88 60.16c-15.189 10.112-31.445 15.232-48.384 15.232-39.979 0-78.805-26.112-104.32-48-13.952-11.989-21.973-29.611-21.973-48.341v-75.179c0-67.968-26.453-132.053-74.453-180.565-45.739-45.312-105.899-71.637-169.557-74.368-3.499-0.128-6.997-0.213-10.496-0.213zM128 320c0-23.564-19.103-42.667-42.667-42.667s-42.667 19.103-42.667 42.667c0 23.564 19.103 42.667 42.667 42.667s42.667-19.103 42.667-42.667zM181.333 106.667c0-23.564-19.103-42.667-42.667-42.667s-42.667 19.103-42.667 42.667c0 23.564 19.103 42.667 42.667 42.667s42.667-19.103 42.667-42.667zM981.333 192c0-23.564-19.103-42.667-42.667-42.667s-42.667 19.103-42.667 42.667c0 23.564 19.103 42.667 42.667 42.667s42.667-19.103 42.667-42.667zM768 106.667c0-23.564-19.103-42.667-42.667-42.667s-42.667 19.103-42.667 42.667c0 23.564 19.103 42.667 42.667 42.667s42.667-19.103 42.667-42.667zM896 362.667c0-23.564-19.103-42.667-42.667-42.667s-42.667 19.103-42.667 42.667c0 23.564 19.103 42.667 42.667 42.667s42.667-19.103 42.667-42.667z" />
<glyph unicode="&#xe939;" glyph-name="whatsapp" d="M568.747 188.757c172.8-41.131 233.6 106.667 203.136 161.835-12.203 22.016-121.856 64.299-127.189 66.347-47.104 17.152-64.512-14.848-97.152-56.96-62.677 31.36-104.704 56.064-147.883 126.293 2.432 3.029 5.675 6.613 8.107 9.344 15.104 16.896 43.392 48.384 24.107 86.912-16.213 32.299-24.277 54.827-30.208 71.339-17.195 47.829-30.293 60.8-89.515 60.8-61.653 0-109.483-81.024-109.483-150.784 0-152.277 204.715-336.597 366.080-375.125zM312.149 650.667c12.8 0 19.285-0.427 22.528-0.939 6.912-14.635 13.909-45.184 39.68-92.715-4.011-14.976-60.971-50.091-34.56-95.488 53.973-91.648 107.989-123.435 185.387-161.92 51.541-23.296 68.011 18.901 100.693 55.979 15.147-6.144 66.261-28.757 88.704-40.107-2.005-44.203-44.672-84.992-130.987-64.427-148.139 35.371-316.971 202.027-316.971 312.875 0.043 42.155 29.611 86.741 45.525 86.741zM3.541-24.96c-5.589-20.224 9.557-40.491 30.848-40.491 7.68 0-4.864-1.963 249.515 64 103.552-52.736 182.272-51.072 232.533-55.808 450.347 0 670.933 549.248 361.003 868.821-424.832 410.624-1086.464-99.669-809.6-602.752zM826.496 771.712c7.381-13.483 219.093-204.416 101.205-489.728-72.576-175.787-240.043-284.117-427.691-273.963-152.661 8.491-192.171 63.019-220.288 55.552l-199.808-52.053 53.12 193.024c2.304 8.277 1.152 17.109-3.115 24.533-255.275 440.491 321.963 893.397 696.576 542.635z" />
<glyph unicode="&#xe93a;" glyph-name="twitter" d="M20.181 123.947c94.805-60.16 205.141-91.947 319.061-91.947 166.827 0 319.701 64.085 430.507 180.437 106.027 111.36 164.352 260.992 161.451 412.843 40.192 34.389 87.467 100.053 87.467 164.053 0 24.533-26.624 40.107-48.213 27.605-37.76-22.187-72.192-27.989-107.605-18.048-72.32 70.485-179.968 85.333-270.677 36.437-79.275-42.667-123.349-120.747-119.381-206.080-133.931 16.341-257.664 83.499-343.936 187.861-14.165 17.024-41.045 15.019-52.309-4.267-41.557-71.168-41.131-153.643-4.992-220.245-17.195-3.029-27.819-17.493-27.819-33.152 0-66.944 30.123-128.469 78.635-170.453-9.045-8.704-12.032-21.632-8.192-33.152 21.333-64.085 69.632-114.176 130.005-139.264-65.664-31.36-138.283-41.813-202.923-33.877-33.451 4.523-49.963-40.448-21.077-58.752zM347.989 205.611c23.936 18.389 11.221 56.704-18.816 57.344-52.907 1.109-101.077 27.179-131.072 68.181 14.464 0.939 29.44 3.157 43.691 6.997 32.469 8.789 30.933 55.637-2.048 62.251-59.861 12.032-106.837 55.637-124.459 111.787 16.085-3.968 32.469-6.187 48.811-6.485 32.384-0.171 44.629 41.344 18.219 58.709-59.52 39.211-84.907 108.459-68.096 173.568 103.936-105.301 244.949-168.747 394.112-175.915 21.376-1.323 37.419 18.773 32.725 39.125-20.267 87.851 28.8 149.419 81.493 177.792 52.139 28.16 135.851 36.949 200.021-30.379 19.072-20.096 83.413-20.864 116.139-13.227-14.677-27.648-37.248-53.888-58.368-68.651-9.003-6.315-14.165-16.811-13.611-27.776 6.869-140.16-45.355-279.509-143.275-382.293-98.645-103.552-235.051-160.597-384.171-160.597-59.307 0-117.461 9.643-172.416 28.245 65.707 12.715 128.128 40.533 181.12 81.323z" />
<glyph unicode="&#xe93b;" glyph-name="list" d="M323.368 878.313h700.628v-53.891h-700.628zM0 878.313h188.635v-53.891h-188.635zM323.368 474.102h700.628v-53.891h-700.628zM323.368 69.891h700.628v-53.891h-700.628zM0 474.102h188.635v-53.891h-188.635zM0 69.891h188.635v-53.891h-188.635z" />
<glyph unicode="&#xe93c;" glyph-name="suit" d="M874.667-64h-725.333c-58.837 0-106.667 47.872-106.667 106.667v810.667c0 58.795 47.829 106.667 106.667 106.667h725.333c58.837 0 106.667-47.872 106.667-106.667v-810.667c0-58.795-47.829-106.667-106.667-106.667zM149.333 917.333c-35.285 0-64-28.715-64-64v-810.667c0-35.285 28.715-64 64-64h725.333c35.285 0 64 28.715 64 64v810.667c0 35.285-28.715 64-64 64zM320 576c-2.773 0-5.632 0.555-8.277 1.664-6.613 2.773-11.392 8.704-12.672 15.744l-64 341.333c-1.664 8.832 2.389 17.792 10.155 22.315 7.765 4.608 17.536 3.755 24.448-2.005l256-213.333c5.163-4.309 8.021-10.795 7.637-17.536-0.341-6.699-3.883-12.885-9.472-16.597l-192-128c-3.541-2.389-7.637-3.584-11.819-3.584zM287.872 884.309l47.104-251.349 141.355 94.251zM704 576c-4.181 0-8.277 1.195-11.819 3.584l-192 128c-5.589 3.712-9.131 9.899-9.472 16.597-0.384 6.741 2.475 13.227 7.637 17.536l256 213.333c6.869 5.76 16.768 6.613 24.448 2.005 7.765-4.523 11.819-13.483 10.155-22.315l-64-341.333c-1.28-7.040-6.101-12.928-12.672-15.744-2.645-1.109-5.504-1.664-8.277-1.664zM547.627 727.211l141.355-94.251 47.104 251.349zM512 106.667c-6.315 0-12.331 2.816-16.384 7.68l-106.667 128c-3.712 4.437-5.419 10.112-4.821 15.829l42.667 416c1.195 11.776 11.947 19.925 23.381 19.072 11.733-1.195 20.267-11.691 19.029-23.381l-41.771-407.083 84.565-101.461 84.523 101.419-41.771 407.083c-1.195 11.691 7.296 22.187 19.029 23.381 11.392 0.896 22.187-7.296 23.381-19.072l42.667-416c0.597-5.717-1.109-11.435-4.821-15.829l-106.667-128c-4.011-4.821-10.027-7.637-16.341-7.637z" />
<glyph unicode="&#xe93d;" glyph-name="price-tag" d="M405.333-64c-28.544 0-55.339 11.093-75.477 31.275l-298.624 298.667c-20.139 20.096-31.232 46.891-31.232 75.392 0 27.392 10.368 53.419 29.184 73.301l481.152 498.773c27.904 29.568 67.456 46.592 108.331 46.592h298.667c58.837 0 106.667-47.872 106.667-106.667v-298.667c0-40.832-16.981-80.341-46.635-108.416l-498.603-480.939c-20.053-18.944-46.037-29.312-73.429-29.312zM618.667 917.333c-29.611 0-57.173-11.861-77.483-33.365l-481.152-498.816c-11.136-11.776-17.365-27.392-17.365-43.819 0-17.109 6.656-33.152 18.731-45.227l298.667-298.667c23.68-23.723 64.896-24.32 89.216-1.237l498.56 480.853c0.043 0.043 0.085 0.085 0.128 0.128 21.547 20.352 33.365 47.872 33.365 77.483v298.667c0 35.285-28.715 64-64 64zM718.763-63.915c-8.533 0-17.152 1.024-25.728 3.072l-204.416 49.92c-11.477 2.773-18.475 14.336-15.659 25.771 2.773 11.435 14.549 18.389 25.771 15.659l204.373-49.92c11.947-2.859 30.165-3.84 48.768 7.339 13.909 8.661 24.107 22.144 28.416 37.803l100.267 382.037c2.944 11.392 14.549 18.219 26.027 15.189 11.392-2.987 18.219-14.635 15.189-26.027l-100.309-382.293c-7.253-26.283-24.021-48.597-47.317-63.061-16.981-10.24-36.011-15.488-55.381-15.488zM810.667 661.333c-47.061 0-85.333 38.272-85.333 85.333s38.272 85.333 85.333 85.333 85.333-38.272 85.333-85.333-38.272-85.333-85.333-85.333zM810.667 789.333c-23.552 0-42.667-19.157-42.667-42.667s19.115-42.667 42.667-42.667 42.667 19.157 42.667 42.667-19.115 42.667-42.667 42.667z" />
<glyph unicode="&#xe93e;" glyph-name="shipping" d="M960-64h-896c-35.285 0-64 28.715-64 64v597.333c0 11.776 9.557 21.333 21.333 21.333h981.333c11.776 0 21.333-9.557 21.333-21.333v-597.333c0-35.285-28.715-64-64-64zM42.667 576v-576c0-11.776 9.557-21.333 21.333-21.333h896c11.776 0 21.333 9.557 21.333 21.333v576zM874.667 64h-298.667c-11.776 0-21.333 9.557-21.333 21.333v170.667c0 11.776 9.557 21.333 21.333 21.333h298.667c11.776 0 21.333-9.557 21.333-21.333v-170.667c0-11.776-9.557-21.333-21.333-21.333zM597.333 106.667h256v128h-256zM1002.667 576c-8.619 0-16.768 5.291-19.968 13.824l-122.837 327.509h-695.723l-122.837-327.509c-4.139-11.008-16.427-16.512-27.477-12.459-11.008 4.139-16.597 16.427-12.459 27.477l128 341.333c3.115 8.32 11.093 13.824 19.968 13.824h725.333c8.875 0 16.853-5.504 19.968-13.824l128-341.333c4.139-11.051-1.451-23.339-12.459-27.477-2.475-0.939-4.992-1.365-7.509-1.365zM512 576c-11.776 0-21.333 9.557-21.333 21.333v341.333c0 11.776 9.557 21.333 21.333 21.333s21.333-9.557 21.333-21.333v-341.333c0-11.776-9.557-21.333-21.333-21.333z" />
<glyph unicode="&#xe93f;" glyph-name="brush" d="M128-64c-70.571 0-128 57.429-128 128 0 34.219 13.312 66.347 37.504 90.496l446.293 446.421c17.621 17.664 30.677 39.637 37.675 63.531l64.085 218.539c15.445 52.651 66.688 85.077 119.339 75.307 177.451-32.939 284.203-136.619 317.312-308.181 9.899-51.243-21.163-102.4-72.192-119.040l-223.915-72.917c-22.272-7.253-42.795-19.84-59.392-36.437l-448.213-448.213c-24.149-24.192-56.277-37.504-90.496-37.504zM686.677 917.333c-26.837 0-52.139-18.773-60.203-46.293l-64.085-218.539c-9.003-30.763-25.771-59.008-48.469-81.707l-446.251-446.464c-16.128-16.085-25.003-37.547-25.003-60.331 0-47.061 38.272-85.333 85.333-85.333 22.784 0 44.245 8.875 60.331 25.003l448.171 448.299c21.291 21.291 47.659 37.461 76.331 46.848l223.915 72.917c30.635 9.941 49.365 40.192 43.563 70.357-29.867 154.752-122.496 244.48-283.179 274.304-3.499 0.597-6.997 0.939-10.453 0.939zM486.13 571.577l30.165 30.165 149.318-149.318-30.165-30.165zM379.463 464.91l30.165 30.165 149.318-149.318-30.165-30.165zM704 704c-4.395 0-8.789 1.323-12.587 4.139-9.515 6.997-11.563 20.352-4.565 29.824l117.333 160c6.997 9.472 20.309 11.563 29.824 4.565s11.563-20.352 4.565-29.824l-117.333-160c-4.224-5.675-10.709-8.704-17.237-8.704zM789.333 618.667c-6.571 0-13.056 3.029-17.237 8.704-6.955 9.515-4.907 22.869 4.565 29.824l160 117.333c9.515 7.040 22.827 4.907 29.824-4.565 6.955-9.515 4.907-22.869-4.565-29.824l-160-117.333c-3.755-2.816-8.192-4.139-12.587-4.139z" />
<glyph unicode="&#xe940;" glyph-name="youtube" d="M424.064 624.811c-21.205 12.672-48.384-2.645-48.384-27.477v-298.667c0-24.96 27.221-40.064 48.384-27.52l250.411 149.12c20.821 12.416 20.779 42.539 0.043 54.997zM439.68 354.944v186.027l155.947-93.141zM849.237 820.437c-198.528 29.483-475.861 29.483-674.475 0-79.445-11.776-142.037-74.155-155.691-155.136-25.429-150.315-25.429-284.331 0-434.603 13.653-81.024 76.245-143.36 155.691-155.136 99.499-14.763 218.624-22.144 337.707-22.144 118.869 0 237.696 7.339 336.811 22.101 79.36 11.776 141.909 74.112 155.648 155.136 25.429 150.315 25.429 284.373 0 434.688-13.653 80.939-76.245 143.317-155.691 155.093zM941.824 241.323c-9.088-53.589-50.048-94.805-101.973-102.485-192.768-28.629-462.421-28.629-655.701 0.043-51.968 7.723-92.971 48.896-102.016 102.485-24.491 144.811-24.491 268.416 0 413.312 9.088 53.589 50.048 94.72 102.059 102.485 96.512 14.293 212.181 21.461 327.765 21.461 115.669 0 231.339-7.168 327.851-21.461 51.968-7.723 92.971-48.896 102.016-102.485 24.491-144.896 24.491-268.501 0-413.355z" />
<glyph unicode="&#xe941;" glyph-name="fire1" d="M404.399-21.403c-55.849 0-110.417 13.525-159.781 40.191-142.416 77.266-218.573 229.112-198.734 396.317 7.723 66.387 25.812 161.402 93.437 219.341 13.141 11.136 30.079 14.719 46.505 9.856 17.748-5.248 31.658-19.37 37.247-37.844 10.24-35.114 23.338-60.627 43.817-83.41 6.613 125.393 59.646 295.158 195.022 422.598 14.123 13.44 33.45 17.834 51.582 11.563 19.028-6.571 32.767-23.636 35.796-44.499 14.208-94.802 61.481-174.629 107.26-251.81 39.252-66.302 79.869-134.822 99.282-212.388 2.816-11.435-4.096-23.039-15.53-25.855-11.392-2.816-22.954 4.096-25.855 15.487-17.876 71.55-55.166 134.438-94.589 200.996-47.827 80.722-97.277 164.175-112.764 267.34-1.109 7.68-6.059 9.899-7.509 10.411-2.816 1.024-5.717 0.299-8.277-2.219-143.483-134.992-187.684-320.501-182.010-438.342 0.427-8.277-4.053-16.042-11.392-19.924-7.381-3.84-16.255-3.115-22.826 1.92-49.193 37.546-75.218 75.645-92.84 136.016-1.664 5.248-5.419 8.149-8.491 9.045-3.627 1.067-5.973-0.768-6.784-1.408-42.708-36.607-67.795-97.618-78.76-191.865-17.706-149.499 50.003-285.046 176.677-353.78 70.526-38.143 153.638-45.438 233.549-20.564 11.477 3.499 23.252-2.773 26.708-14.037 3.499-11.264-2.773-23.21-14.037-26.708-35.412-11.008-71.294-16.426-106.705-16.426zM639.996 192.009c-47.059 0-85.33 38.271-85.33 85.33s38.271 85.33 85.33 85.33 85.33-38.271 85.33-85.33-38.271-85.33-85.33-85.33zM639.996 320.004c-23.551 0-42.666-19.156-42.666-42.666s19.114-42.666 42.666-42.666 42.666 19.156 42.666 42.666-19.114 42.666-42.666 42.666zM895.987-63.982c-47.059 0-85.33 38.271-85.33 85.33s38.271 85.33 85.33 85.33 85.33-38.271 85.33-85.33-38.271-85.33-85.33-85.33zM895.987 64.013c-23.551 0-42.666-19.156-42.666-42.666s19.114-42.666 42.666-42.666 42.666 19.156 42.666 42.666-19.114 42.666-42.666 42.666zM618.663-63.982c-4.565 0-9.216 1.451-13.099 4.48-9.344 7.211-11.008 20.607-3.755 29.951l298.657 383.987c7.253 9.301 20.65 10.965 29.908 3.712 9.344-7.211 11.008-20.607 3.755-29.951l-298.657-383.987c-4.181-5.376-10.496-8.192-16.81-8.192z" />
<glyph unicode="&#xe942;" glyph-name="return" d="M1002.667-64c-11.776 0-21.333 9.557-21.333 21.333v85.333c0 129.365-105.301 234.667-234.667 234.667h-85.333c-11.776 0-21.333 9.557-21.333 21.333s9.557 21.333 21.333 21.333h85.333c152.917 0 277.333-124.416 277.333-277.333v-85.333c0-11.776-9.557-21.333-21.333-21.333zM810.667 149.333c-4.907 0-9.856 1.664-13.867 5.12l-149.333 128c-4.779 4.096-7.467 9.984-7.467 16.213s2.688 12.117 7.467 16.213l149.333 128c8.917 7.595 22.315 6.571 30.080-2.347 7.68-8.917 6.613-22.4-2.347-30.080l-130.432-111.787 130.432-111.787c8.96-7.68 9.984-21.163 2.347-30.080-4.267-4.907-10.197-7.467-16.213-7.467zM704 106.667h-597.333c-35.285 0-64 28.715-64 64v469.333c0 11.776 9.557 21.333 21.333 21.333h725.333c11.776 0 21.333-9.557 21.333-21.333v-130.56c0-11.776-9.557-21.333-21.333-21.333s-21.333 9.557-21.333 21.333v109.227h-682.667v-448c0-11.733 9.6-21.333 21.333-21.333h597.333c11.776 0 21.333-9.557 21.333-21.333s-9.557-21.333-21.333-21.333zM533.333 490.667h-213.333c-11.776 0-21.333 9.557-21.333 21.333s9.557 21.333 21.333 21.333h213.333c11.776 0 21.333-9.557 21.333-21.333s-9.557-21.333-21.333-21.333zM832 618.667h-810.667c-11.776 0-21.333 9.557-21.333 21.333v170.667c0 11.776 9.557 21.333 21.333 21.333h810.667c11.776 0 21.333-9.557 21.333-21.333v-170.667c0-11.776-9.557-21.333-21.333-21.333zM42.667 661.333h768v128h-768zM832 789.333c-5.461 0-10.923 2.091-15.104 6.229l-121.728 121.771h-537.003l-121.728-121.771c-8.32-8.32-21.845-8.32-30.165 0s-8.32 21.845 0 30.165l128 128c3.968 4.011 9.387 6.272 15.061 6.272h554.667c5.675 0 11.093-2.261 15.104-6.229l128-128c8.32-8.32 8.32-21.845 0-30.165-4.181-4.181-9.643-6.272-15.104-6.272z" />
<glyph unicode="&#xe943;" glyph-name="ellipsis-vertical" d="M512 704c-70.571 0-128 57.429-128 128s57.429 128 128 128 128-57.429 128-128-57.429-128-128-128zM512 917.333c-47.061 0-85.333-38.272-85.333-85.333s38.272-85.333 85.333-85.333 85.333 38.272 85.333 85.333-38.272 85.333-85.333 85.333zM512 320c-70.571 0-128 57.429-128 128s57.429 128 128 128 128-57.429 128-128-57.429-128-128-128zM512 533.333c-47.061 0-85.333-38.272-85.333-85.333s38.272-85.333 85.333-85.333 85.333 38.272 85.333 85.333-38.272 85.333-85.333 85.333zM512-64c-70.571 0-128 57.429-128 128s57.429 128 128 128 128-57.429 128-128-57.429-128-128-128zM512 149.333c-47.061 0-85.333-38.272-85.333-85.333s38.272-85.333 85.333-85.333 85.333 38.272 85.333 85.333-38.272 85.333-85.333 85.333z" />
<glyph unicode="&#xe944;" glyph-name="down" d="M1017.489 708.631c-8.682 8.682-22.796 8.682-31.478 0l-473.987-474.033-474.033 473.987c-8.682 8.682-22.796 8.682-31.478 0s-8.682-22.796 0-31.478l489.75-489.75c4.364-4.318 10.061-6.501 15.761-6.501s11.397 2.181 15.717 6.545l489.75 489.75c8.68 8.684 8.68 22.798-0.002 31.48z" />
<glyph unicode="&#xe945;" glyph-name="pin" d="M512 0c-246.93 0-448 201.070-448 448s201.070 448 448 448 448-201.070 448-448-201.070-448-448-448zM512 853.336c-223.469 0-405.336-181.867-405.336-405.336s181.867-405.336 405.336-405.336 405.336 181.867 405.336 405.336-181.867 405.336-405.336 405.336zM490.664 960h42.672v-192h-42.672zM490.664 128h42.672v-192h-42.672zM832 469.336h192v-42.672h-192zM0 469.336h192v-42.672h-192zM512 298.664c-82.398 0-149.336 66.938-149.336 149.336s66.938 149.336 149.336 149.336 149.336-66.938 149.336-149.336-66.938-149.336-149.336-149.336zM512 554.664c-58.93 0-106.664-47.734-106.664-106.664s47.734-106.664 106.664-106.664 106.664 47.734 106.664 106.664-47.734 106.664-106.664 106.664z" />
<glyph unicode="&#xe946;" glyph-name="fruits" d="M337.664-64c-189.312 0-337.664 128-337.664 291.413 0 61.141 20.181 119.893 58.368 169.941l0.043-0.043c0.896 1.237 1.877 2.475 2.688 3.285l0.128-0.171c82.389 115.413 84.736 205.269 84.736 215.253 0 96.128 86.016 173.653 191.701 173.653 105.771 0 191.744-77.525 191.744-172.8 0-9.259 1.835-85.931 64.64-185.301 6.272-9.941 3.328-23.125-6.613-29.44-9.941-6.187-23.125-3.371-29.44 6.656-67.797 107.264-71.211 191.445-71.211 207.232-0.043 72.619-66.901 130.987-149.12 130.987-82.176 0-149.035-58.368-149.035-130.133 0-12.416-2.645-117.205-93.995-242.133-0.384-0.555-1.28-1.664-2.048-2.603-0.128-0.128-0.213-0.256-0.299-0.384-32.469-42.496-49.621-92.331-49.621-144 0-139.477 129.579-248.747 294.997-248.747 67.157 0 130.261 17.963 182.357 52.011 9.899 6.357 23.125 3.627 29.525-6.229s3.669-23.083-6.229-29.525c-59.008-38.528-130.133-58.923-205.653-58.923zM341.333 746.667c-11.776 0-21.333 9.557-21.333 21.333 0 105.856 86.144 192 192 192h21.333c11.776 0 21.333-9.557 21.333-21.333s-9.557-21.333-21.333-21.333h-21.333c-82.347 0-149.333-66.987-149.333-149.333 0-11.776-9.557-21.333-21.333-21.333zM725.333 405.333c-11.776 0-21.333 9.557-21.333 21.333 0 105.856 86.144 192 192 192h21.333c11.776 0 21.333-9.557 21.333-21.333s-9.557-21.333-21.333-21.333h-21.333c-82.347 0-149.333-66.987-149.333-149.333 0-11.776-9.557-21.333-21.333-21.333zM803.029-64c-26.837 0-52.907 5.461-77.739 16.256-24.704-10.795-50.773-16.256-77.653-16.256-122.411 0-220.971 169.685-220.971 310.187 0 126.379 82.603 201.813 220.971 201.813 26.837 0 52.907-5.461 77.696-16.256 24.789 10.795 50.859 16.256 77.696 16.256 138.368 0 220.971-75.477 220.971-201.813 0-140.501-98.56-310.187-220.971-310.187zM725.248-2.859c3.243 0 6.485-0.768 9.515-2.219 21.675-10.795 44.672-16.256 68.267-16.256 96 0 178.304 147.072 178.304 267.52 0 138.496-111.701 159.147-178.304 159.147-23.637 0-46.592-5.461-68.224-16.213-6.016-2.987-13.013-2.987-18.987 0-21.589 10.752-44.587 16.213-68.181 16.213-66.603 0-178.304-20.651-178.304-159.147 0-120.405 82.304-267.52 178.304-267.52 23.68 0 46.592 5.461 68.096 16.213 2.987 1.493 6.272 2.261 9.515 2.261z" />
<glyph unicode="&#xe947;" glyph-name="close" d="M23.797-64l488.203 489.363 488.203-489.363 22.624 22.624-488.239 489.384 488.239 489.399-22.624 22.593-488.203-489.349-488.203 489.349-22.624-22.593 488.239-489.399-488.239-489.384z" />
<glyph unicode="&#xe948;" glyph-name="check-lists" d="M896 704c-70.571 0-128 57.429-128 128s57.429 128 128 128 128-57.429 128-128-57.429-128-128-128zM896 917.333c-47.061 0-85.333-38.272-85.333-85.333s38.272-85.333 85.333-85.333 85.333 38.272 85.333 85.333-38.272 85.333-85.333 85.333zM896 320c-70.571 0-128 57.429-128 128s57.429 128 128 128 128-57.429 128-128-57.429-128-128-128zM896 533.333c-47.061 0-85.333-38.272-85.333-85.333s38.272-85.333 85.333-85.333 85.333 38.272 85.333 85.333-38.272 85.333-85.333 85.333zM896-64c-70.571 0-128 57.429-128 128s57.429 128 128 128 128-57.429 128-128-57.429-128-128-128zM896 149.333c-47.061 0-85.333-38.272-85.333-85.333s38.272-85.333 85.333-85.333 85.333 38.272 85.333 85.333-38.272 85.333-85.333 85.333zM661.333 874.667h-640c-11.776 0-21.333 9.557-21.333 21.333s9.557 21.333 21.333 21.333h640c11.776 0 21.333-9.557 21.333-21.333s-9.557-21.333-21.333-21.333zM661.333 746.667h-640c-11.776 0-21.333 9.557-21.333 21.333s9.557 21.333 21.333 21.333h640c11.776 0 21.333-9.557 21.333-21.333s-9.557-21.333-21.333-21.333zM661.333 490.667h-640c-11.776 0-21.333 9.557-21.333 21.333s9.557 21.333 21.333 21.333h640c11.776 0 21.333-9.557 21.333-21.333s-9.557-21.333-21.333-21.333zM661.333 362.667h-640c-11.776 0-21.333 9.557-21.333 21.333s9.557 21.333 21.333 21.333h640c11.776 0 21.333-9.557 21.333-21.333s-9.557-21.333-21.333-21.333zM661.333 106.667h-640c-11.776 0-21.333 9.557-21.333 21.333s9.557 21.333 21.333 21.333h640c11.776 0 21.333-9.557 21.333-21.333s-9.557-21.333-21.333-21.333zM661.333-21.333h-640c-11.776 0-21.333 9.557-21.333 21.333s9.557 21.333 21.333 21.333h640c11.776 0 21.333-9.557 21.333-21.333s-9.557-21.333-21.333-21.333z" />
</font>
</defs>
</svg>
